<mxfile host="Electron" modified="2025-01-28T18:14:02.433Z" agent="Mozilla/5.0 (Windows NT 10.0; Win64; x64) AppleWebKit/537.36 (KHTML, like Gecko) draw.io/24.4.0 Chrome/120.0.6099.109 Electron/28.1.0 Safari/537.36" etag="Lngn4q58zG30ze2r7io9" version="24.4.0" type="device">
  <diagram name="Page-1" id="jytQSdiYGOSv07Mp8htY">
    <mxGraphModel dx="2200" dy="1310" grid="1" gridSize="10" guides="1" tooltips="1" connect="1" arrows="1" fold="1" page="1" pageScale="1" pageWidth="850" pageHeight="1100" math="0" shadow="0">
      <root>
        <mxCell id="0" />
        <mxCell id="1" parent="0" />
        <mxCell id="9lTHU1FHQdHA7-ZyIOY5-1" value="USERS" style="shape=table;startSize=25;container=1;collapsible=0;childLayout=tableLayout;fixedRows=1;rowLines=1;fontStyle=1;align=center;resizeLast=1;fontFamily=Helvetica;fontSize=15;strokeWidth=2;shadow=1;" vertex="1" parent="1">
          <mxGeometry x="680" y="20" width="183" height="267" as="geometry" />
        </mxCell>
        <mxCell id="9lTHU1FHQdHA7-ZyIOY5-2" style="shape=tableRow;horizontal=0;startSize=0;swimlaneHead=0;swimlaneBody=0;collapsible=0;dropTarget=0;points=[[0,0.5],[1,0.5]];portConstraint=eastwest;top=0;left=0;right=0;bottom=0;fontFamily=Helvetica;fontSize=15;strokeWidth=2;shadow=1;" vertex="1" parent="9lTHU1FHQdHA7-ZyIOY5-1">
          <mxGeometry y="25" width="183" height="22" as="geometry" />
        </mxCell>
        <mxCell id="9lTHU1FHQdHA7-ZyIOY5-3" value="int" style="shape=partialRectangle;connectable=0;top=0;left=0;bottom=0;right=0;align=left;spacingLeft=2;overflow=hidden;fontSize=15;fontFamily=Helvetica;strokeWidth=2;shadow=1;" vertex="1" parent="9lTHU1FHQdHA7-ZyIOY5-2">
          <mxGeometry width="73" height="22" as="geometry">
            <mxRectangle width="73" height="22" as="alternateBounds" />
          </mxGeometry>
        </mxCell>
        <mxCell id="9lTHU1FHQdHA7-ZyIOY5-4" value="id" style="shape=partialRectangle;connectable=0;top=0;left=0;bottom=0;right=0;align=left;spacingLeft=2;overflow=hidden;fontSize=15;fontFamily=Helvetica;strokeWidth=2;shadow=1;" vertex="1" parent="9lTHU1FHQdHA7-ZyIOY5-2">
          <mxGeometry x="73" width="110" height="22" as="geometry">
            <mxRectangle width="110" height="22" as="alternateBounds" />
          </mxGeometry>
        </mxCell>
        <mxCell id="9lTHU1FHQdHA7-ZyIOY5-5" style="shape=tableRow;horizontal=0;startSize=0;swimlaneHead=0;swimlaneBody=0;collapsible=0;dropTarget=0;points=[[0,0.5],[1,0.5]];portConstraint=eastwest;top=0;left=0;right=0;bottom=0;fontFamily=Helvetica;fontSize=15;strokeWidth=2;shadow=1;" vertex="1" parent="9lTHU1FHQdHA7-ZyIOY5-1">
          <mxGeometry y="47" width="183" height="22" as="geometry" />
        </mxCell>
        <mxCell id="9lTHU1FHQdHA7-ZyIOY5-6" value="string" style="shape=partialRectangle;connectable=0;top=0;left=0;bottom=0;right=0;align=left;spacingLeft=2;overflow=hidden;fontSize=15;fontFamily=Helvetica;strokeWidth=2;shadow=1;" vertex="1" parent="9lTHU1FHQdHA7-ZyIOY5-5">
          <mxGeometry width="73" height="22" as="geometry">
            <mxRectangle width="73" height="22" as="alternateBounds" />
          </mxGeometry>
        </mxCell>
        <mxCell id="9lTHU1FHQdHA7-ZyIOY5-7" value="name" style="shape=partialRectangle;connectable=0;top=0;left=0;bottom=0;right=0;align=left;spacingLeft=2;overflow=hidden;fontSize=15;fontFamily=Helvetica;strokeWidth=2;shadow=1;" vertex="1" parent="9lTHU1FHQdHA7-ZyIOY5-5">
          <mxGeometry x="73" width="110" height="22" as="geometry">
            <mxRectangle width="110" height="22" as="alternateBounds" />
          </mxGeometry>
        </mxCell>
        <mxCell id="9lTHU1FHQdHA7-ZyIOY5-8" style="shape=tableRow;horizontal=0;startSize=0;swimlaneHead=0;swimlaneBody=0;collapsible=0;dropTarget=0;points=[[0,0.5],[1,0.5]];portConstraint=eastwest;top=0;left=0;right=0;bottom=0;fontFamily=Helvetica;fontSize=15;strokeWidth=2;shadow=1;" vertex="1" parent="9lTHU1FHQdHA7-ZyIOY5-1">
          <mxGeometry y="69" width="183" height="22" as="geometry" />
        </mxCell>
        <mxCell id="9lTHU1FHQdHA7-ZyIOY5-9" value="string" style="shape=partialRectangle;connectable=0;top=0;left=0;bottom=0;right=0;align=left;spacingLeft=2;overflow=hidden;fontSize=15;fontFamily=Helvetica;strokeWidth=2;shadow=1;" vertex="1" parent="9lTHU1FHQdHA7-ZyIOY5-8">
          <mxGeometry width="73" height="22" as="geometry">
            <mxRectangle width="73" height="22" as="alternateBounds" />
          </mxGeometry>
        </mxCell>
        <mxCell id="9lTHU1FHQdHA7-ZyIOY5-10" value="email" style="shape=partialRectangle;connectable=0;top=0;left=0;bottom=0;right=0;align=left;spacingLeft=2;overflow=hidden;fontSize=15;fontFamily=Helvetica;strokeWidth=2;shadow=1;" vertex="1" parent="9lTHU1FHQdHA7-ZyIOY5-8">
          <mxGeometry x="73" width="110" height="22" as="geometry">
            <mxRectangle width="110" height="22" as="alternateBounds" />
          </mxGeometry>
        </mxCell>
        <mxCell id="9lTHU1FHQdHA7-ZyIOY5-11" style="shape=tableRow;horizontal=0;startSize=0;swimlaneHead=0;swimlaneBody=0;collapsible=0;dropTarget=0;points=[[0,0.5],[1,0.5]];portConstraint=eastwest;top=0;left=0;right=0;bottom=0;fontFamily=Helvetica;fontSize=15;strokeWidth=2;shadow=1;" vertex="1" parent="9lTHU1FHQdHA7-ZyIOY5-1">
          <mxGeometry y="91" width="183" height="22" as="geometry" />
        </mxCell>
        <mxCell id="9lTHU1FHQdHA7-ZyIOY5-12" value="string" style="shape=partialRectangle;connectable=0;top=0;left=0;bottom=0;right=0;align=left;spacingLeft=2;overflow=hidden;fontSize=15;fontFamily=Helvetica;strokeWidth=2;shadow=1;" vertex="1" parent="9lTHU1FHQdHA7-ZyIOY5-11">
          <mxGeometry width="73" height="22" as="geometry">
            <mxRectangle width="73" height="22" as="alternateBounds" />
          </mxGeometry>
        </mxCell>
        <mxCell id="9lTHU1FHQdHA7-ZyIOY5-13" value="phone_no" style="shape=partialRectangle;connectable=0;top=0;left=0;bottom=0;right=0;align=left;spacingLeft=2;overflow=hidden;fontSize=15;fontFamily=Helvetica;strokeWidth=2;shadow=1;" vertex="1" parent="9lTHU1FHQdHA7-ZyIOY5-11">
          <mxGeometry x="73" width="110" height="22" as="geometry">
            <mxRectangle width="110" height="22" as="alternateBounds" />
          </mxGeometry>
        </mxCell>
        <mxCell id="9lTHU1FHQdHA7-ZyIOY5-14" style="shape=tableRow;horizontal=0;startSize=0;swimlaneHead=0;swimlaneBody=0;collapsible=0;dropTarget=0;points=[[0,0.5],[1,0.5]];portConstraint=eastwest;top=0;left=0;right=0;bottom=0;fontFamily=Helvetica;fontSize=15;strokeWidth=2;shadow=1;" vertex="1" parent="9lTHU1FHQdHA7-ZyIOY5-1">
          <mxGeometry y="113" width="183" height="22" as="geometry" />
        </mxCell>
        <mxCell id="9lTHU1FHQdHA7-ZyIOY5-15" value="string" style="shape=partialRectangle;connectable=0;top=0;left=0;bottom=0;right=0;align=left;spacingLeft=2;overflow=hidden;fontSize=15;fontFamily=Helvetica;strokeWidth=2;shadow=1;" vertex="1" parent="9lTHU1FHQdHA7-ZyIOY5-14">
          <mxGeometry width="73" height="22" as="geometry">
            <mxRectangle width="73" height="22" as="alternateBounds" />
          </mxGeometry>
        </mxCell>
        <mxCell id="9lTHU1FHQdHA7-ZyIOY5-16" value="password_hash" style="shape=partialRectangle;connectable=0;top=0;left=0;bottom=0;right=0;align=left;spacingLeft=2;overflow=hidden;fontSize=15;fontFamily=Helvetica;strokeWidth=2;shadow=1;" vertex="1" parent="9lTHU1FHQdHA7-ZyIOY5-14">
          <mxGeometry x="73" width="110" height="22" as="geometry">
            <mxRectangle width="110" height="22" as="alternateBounds" />
          </mxGeometry>
        </mxCell>
        <mxCell id="9lTHU1FHQdHA7-ZyIOY5-17" style="shape=tableRow;horizontal=0;startSize=0;swimlaneHead=0;swimlaneBody=0;collapsible=0;dropTarget=0;points=[[0,0.5],[1,0.5]];portConstraint=eastwest;top=0;left=0;right=0;bottom=0;fontFamily=Helvetica;fontSize=15;strokeWidth=2;shadow=1;" vertex="1" parent="9lTHU1FHQdHA7-ZyIOY5-1">
          <mxGeometry y="135" width="183" height="22" as="geometry" />
        </mxCell>
        <mxCell id="9lTHU1FHQdHA7-ZyIOY5-18" value="boolean" style="shape=partialRectangle;connectable=0;top=0;left=0;bottom=0;right=0;align=left;spacingLeft=2;overflow=hidden;fontSize=15;fontFamily=Helvetica;strokeWidth=2;shadow=1;" vertex="1" parent="9lTHU1FHQdHA7-ZyIOY5-17">
          <mxGeometry width="73" height="22" as="geometry">
            <mxRectangle width="73" height="22" as="alternateBounds" />
          </mxGeometry>
        </mxCell>
        <mxCell id="9lTHU1FHQdHA7-ZyIOY5-19" value="is_active" style="shape=partialRectangle;connectable=0;top=0;left=0;bottom=0;right=0;align=left;spacingLeft=2;overflow=hidden;fontSize=15;fontFamily=Helvetica;strokeWidth=2;shadow=1;" vertex="1" parent="9lTHU1FHQdHA7-ZyIOY5-17">
          <mxGeometry x="73" width="110" height="22" as="geometry">
            <mxRectangle width="110" height="22" as="alternateBounds" />
          </mxGeometry>
        </mxCell>
        <mxCell id="9lTHU1FHQdHA7-ZyIOY5-20" style="shape=tableRow;horizontal=0;startSize=0;swimlaneHead=0;swimlaneBody=0;collapsible=0;dropTarget=0;points=[[0,0.5],[1,0.5]];portConstraint=eastwest;top=0;left=0;right=0;bottom=0;fontFamily=Helvetica;fontSize=15;strokeWidth=2;shadow=1;" vertex="1" parent="9lTHU1FHQdHA7-ZyIOY5-1">
          <mxGeometry y="157" width="183" height="22" as="geometry" />
        </mxCell>
        <mxCell id="9lTHU1FHQdHA7-ZyIOY5-21" value="boolean" style="shape=partialRectangle;connectable=0;top=0;left=0;bottom=0;right=0;align=left;spacingLeft=2;overflow=hidden;fontSize=15;fontFamily=Helvetica;strokeWidth=2;shadow=1;" vertex="1" parent="9lTHU1FHQdHA7-ZyIOY5-20">
          <mxGeometry width="73" height="22" as="geometry">
            <mxRectangle width="73" height="22" as="alternateBounds" />
          </mxGeometry>
        </mxCell>
        <mxCell id="9lTHU1FHQdHA7-ZyIOY5-22" value="email_verified" style="shape=partialRectangle;connectable=0;top=0;left=0;bottom=0;right=0;align=left;spacingLeft=2;overflow=hidden;fontSize=15;fontFamily=Helvetica;strokeWidth=2;shadow=1;" vertex="1" parent="9lTHU1FHQdHA7-ZyIOY5-20">
          <mxGeometry x="73" width="110" height="22" as="geometry">
            <mxRectangle width="110" height="22" as="alternateBounds" />
          </mxGeometry>
        </mxCell>
        <mxCell id="9lTHU1FHQdHA7-ZyIOY5-23" style="shape=tableRow;horizontal=0;startSize=0;swimlaneHead=0;swimlaneBody=0;collapsible=0;dropTarget=0;points=[[0,0.5],[1,0.5]];portConstraint=eastwest;top=0;left=0;right=0;bottom=0;fontFamily=Helvetica;fontSize=15;strokeWidth=2;shadow=1;" vertex="1" parent="9lTHU1FHQdHA7-ZyIOY5-1">
          <mxGeometry y="179" width="183" height="22" as="geometry" />
        </mxCell>
        <mxCell id="9lTHU1FHQdHA7-ZyIOY5-24" value="string" style="shape=partialRectangle;connectable=0;top=0;left=0;bottom=0;right=0;align=left;spacingLeft=2;overflow=hidden;fontSize=15;fontFamily=Helvetica;strokeWidth=2;shadow=1;" vertex="1" parent="9lTHU1FHQdHA7-ZyIOY5-23">
          <mxGeometry width="73" height="22" as="geometry">
            <mxRectangle width="73" height="22" as="alternateBounds" />
          </mxGeometry>
        </mxCell>
        <mxCell id="9lTHU1FHQdHA7-ZyIOY5-25" value="role" style="shape=partialRectangle;connectable=0;top=0;left=0;bottom=0;right=0;align=left;spacingLeft=2;overflow=hidden;fontSize=15;fontFamily=Helvetica;strokeWidth=2;shadow=1;" vertex="1" parent="9lTHU1FHQdHA7-ZyIOY5-23">
          <mxGeometry x="73" width="110" height="22" as="geometry">
            <mxRectangle width="110" height="22" as="alternateBounds" />
          </mxGeometry>
        </mxCell>
        <mxCell id="9lTHU1FHQdHA7-ZyIOY5-26" style="shape=tableRow;horizontal=0;startSize=0;swimlaneHead=0;swimlaneBody=0;collapsible=0;dropTarget=0;points=[[0,0.5],[1,0.5]];portConstraint=eastwest;top=0;left=0;right=0;bottom=0;fontFamily=Helvetica;fontSize=15;strokeWidth=2;shadow=1;" vertex="1" parent="9lTHU1FHQdHA7-ZyIOY5-1">
          <mxGeometry y="201" width="183" height="22" as="geometry" />
        </mxCell>
        <mxCell id="9lTHU1FHQdHA7-ZyIOY5-27" value="string" style="shape=partialRectangle;connectable=0;top=0;left=0;bottom=0;right=0;align=left;spacingLeft=2;overflow=hidden;fontSize=15;fontFamily=Helvetica;strokeWidth=2;shadow=1;" vertex="1" parent="9lTHU1FHQdHA7-ZyIOY5-26">
          <mxGeometry width="73" height="22" as="geometry">
            <mxRectangle width="73" height="22" as="alternateBounds" />
          </mxGeometry>
        </mxCell>
        <mxCell id="9lTHU1FHQdHA7-ZyIOY5-28" value="profile_pic" style="shape=partialRectangle;connectable=0;top=0;left=0;bottom=0;right=0;align=left;spacingLeft=2;overflow=hidden;fontSize=15;fontFamily=Helvetica;strokeWidth=2;shadow=1;" vertex="1" parent="9lTHU1FHQdHA7-ZyIOY5-26">
          <mxGeometry x="73" width="110" height="22" as="geometry">
            <mxRectangle width="110" height="22" as="alternateBounds" />
          </mxGeometry>
        </mxCell>
        <mxCell id="9lTHU1FHQdHA7-ZyIOY5-29" style="shape=tableRow;horizontal=0;startSize=0;swimlaneHead=0;swimlaneBody=0;collapsible=0;dropTarget=0;points=[[0,0.5],[1,0.5]];portConstraint=eastwest;top=0;left=0;right=0;bottom=0;fontFamily=Helvetica;fontSize=15;strokeWidth=2;shadow=1;" vertex="1" parent="9lTHU1FHQdHA7-ZyIOY5-1">
          <mxGeometry y="223" width="183" height="22" as="geometry" />
        </mxCell>
        <mxCell id="9lTHU1FHQdHA7-ZyIOY5-30" value="datetime" style="shape=partialRectangle;connectable=0;top=0;left=0;bottom=0;right=0;align=left;spacingLeft=2;overflow=hidden;fontSize=15;fontFamily=Helvetica;strokeWidth=2;shadow=1;" vertex="1" parent="9lTHU1FHQdHA7-ZyIOY5-29">
          <mxGeometry width="73" height="22" as="geometry">
            <mxRectangle width="73" height="22" as="alternateBounds" />
          </mxGeometry>
        </mxCell>
        <mxCell id="9lTHU1FHQdHA7-ZyIOY5-31" value="created_at" style="shape=partialRectangle;connectable=0;top=0;left=0;bottom=0;right=0;align=left;spacingLeft=2;overflow=hidden;fontSize=15;fontFamily=Helvetica;strokeWidth=2;shadow=1;" vertex="1" parent="9lTHU1FHQdHA7-ZyIOY5-29">
          <mxGeometry x="73" width="110" height="22" as="geometry">
            <mxRectangle width="110" height="22" as="alternateBounds" />
          </mxGeometry>
        </mxCell>
        <mxCell id="9lTHU1FHQdHA7-ZyIOY5-32" style="shape=tableRow;horizontal=0;startSize=0;swimlaneHead=0;swimlaneBody=0;collapsible=0;dropTarget=0;points=[[0,0.5],[1,0.5]];portConstraint=eastwest;top=0;left=0;right=0;bottom=0;fontFamily=Helvetica;fontSize=15;strokeWidth=2;shadow=1;" vertex="1" parent="9lTHU1FHQdHA7-ZyIOY5-1">
          <mxGeometry y="245" width="183" height="22" as="geometry" />
        </mxCell>
        <mxCell id="9lTHU1FHQdHA7-ZyIOY5-33" value="datetime" style="shape=partialRectangle;connectable=0;top=0;left=0;bottom=0;right=0;align=left;spacingLeft=2;overflow=hidden;fontSize=15;fontFamily=Helvetica;strokeWidth=2;shadow=1;" vertex="1" parent="9lTHU1FHQdHA7-ZyIOY5-32">
          <mxGeometry width="73" height="22" as="geometry">
            <mxRectangle width="73" height="22" as="alternateBounds" />
          </mxGeometry>
        </mxCell>
        <mxCell id="9lTHU1FHQdHA7-ZyIOY5-34" value="updated_at" style="shape=partialRectangle;connectable=0;top=0;left=0;bottom=0;right=0;align=left;spacingLeft=2;overflow=hidden;fontSize=15;fontFamily=Helvetica;strokeWidth=2;shadow=1;" vertex="1" parent="9lTHU1FHQdHA7-ZyIOY5-32">
          <mxGeometry x="73" width="110" height="22" as="geometry">
            <mxRectangle width="110" height="22" as="alternateBounds" />
          </mxGeometry>
        </mxCell>
        <mxCell id="9lTHU1FHQdHA7-ZyIOY5-35" value="ROLES" style="shape=table;startSize=25;container=1;collapsible=0;childLayout=tableLayout;fixedRows=1;rowLines=1;fontStyle=1;align=center;resizeLast=1;fontFamily=Helvetica;fontSize=15;strokeWidth=2;shadow=1;" vertex="1" parent="1">
          <mxGeometry x="287" y="75" width="163" height="157" as="geometry" />
        </mxCell>
        <mxCell id="9lTHU1FHQdHA7-ZyIOY5-36" style="shape=tableRow;horizontal=0;startSize=0;swimlaneHead=0;swimlaneBody=0;collapsible=0;dropTarget=0;points=[[0,0.5],[1,0.5]];portConstraint=eastwest;top=0;left=0;right=0;bottom=0;fontFamily=Helvetica;fontSize=15;strokeWidth=2;shadow=1;" vertex="1" parent="9lTHU1FHQdHA7-ZyIOY5-35">
          <mxGeometry y="25" width="163" height="22" as="geometry" />
        </mxCell>
        <mxCell id="9lTHU1FHQdHA7-ZyIOY5-37" value="int" style="shape=partialRectangle;connectable=0;top=0;left=0;bottom=0;right=0;align=left;spacingLeft=2;overflow=hidden;fontSize=15;fontFamily=Helvetica;strokeWidth=2;shadow=1;" vertex="1" parent="9lTHU1FHQdHA7-ZyIOY5-36">
          <mxGeometry width="73" height="22" as="geometry">
            <mxRectangle width="73" height="22" as="alternateBounds" />
          </mxGeometry>
        </mxCell>
        <mxCell id="9lTHU1FHQdHA7-ZyIOY5-38" value="id" style="shape=partialRectangle;connectable=0;top=0;left=0;bottom=0;right=0;align=left;spacingLeft=2;overflow=hidden;fontSize=15;fontFamily=Helvetica;strokeWidth=2;shadow=1;" vertex="1" parent="9lTHU1FHQdHA7-ZyIOY5-36">
          <mxGeometry x="73" width="90" height="22" as="geometry">
            <mxRectangle width="90" height="22" as="alternateBounds" />
          </mxGeometry>
        </mxCell>
        <mxCell id="9lTHU1FHQdHA7-ZyIOY5-39" style="shape=tableRow;horizontal=0;startSize=0;swimlaneHead=0;swimlaneBody=0;collapsible=0;dropTarget=0;points=[[0,0.5],[1,0.5]];portConstraint=eastwest;top=0;left=0;right=0;bottom=0;fontFamily=Helvetica;fontSize=15;strokeWidth=2;shadow=1;" vertex="1" parent="9lTHU1FHQdHA7-ZyIOY5-35">
          <mxGeometry y="47" width="163" height="22" as="geometry" />
        </mxCell>
        <mxCell id="9lTHU1FHQdHA7-ZyIOY5-40" value="string" style="shape=partialRectangle;connectable=0;top=0;left=0;bottom=0;right=0;align=left;spacingLeft=2;overflow=hidden;fontSize=15;fontFamily=Helvetica;strokeWidth=2;shadow=1;" vertex="1" parent="9lTHU1FHQdHA7-ZyIOY5-39">
          <mxGeometry width="73" height="22" as="geometry">
            <mxRectangle width="73" height="22" as="alternateBounds" />
          </mxGeometry>
        </mxCell>
        <mxCell id="9lTHU1FHQdHA7-ZyIOY5-41" value="role" style="shape=partialRectangle;connectable=0;top=0;left=0;bottom=0;right=0;align=left;spacingLeft=2;overflow=hidden;fontSize=15;fontFamily=Helvetica;strokeWidth=2;shadow=1;" vertex="1" parent="9lTHU1FHQdHA7-ZyIOY5-39">
          <mxGeometry x="73" width="90" height="22" as="geometry">
            <mxRectangle width="90" height="22" as="alternateBounds" />
          </mxGeometry>
        </mxCell>
        <mxCell id="9lTHU1FHQdHA7-ZyIOY5-42" style="shape=tableRow;horizontal=0;startSize=0;swimlaneHead=0;swimlaneBody=0;collapsible=0;dropTarget=0;points=[[0,0.5],[1,0.5]];portConstraint=eastwest;top=0;left=0;right=0;bottom=0;fontFamily=Helvetica;fontSize=15;strokeWidth=2;shadow=1;" vertex="1" parent="9lTHU1FHQdHA7-ZyIOY5-35">
          <mxGeometry y="69" width="163" height="22" as="geometry" />
        </mxCell>
        <mxCell id="9lTHU1FHQdHA7-ZyIOY5-43" value="string" style="shape=partialRectangle;connectable=0;top=0;left=0;bottom=0;right=0;align=left;spacingLeft=2;overflow=hidden;fontSize=15;fontFamily=Helvetica;strokeWidth=2;shadow=1;" vertex="1" parent="9lTHU1FHQdHA7-ZyIOY5-42">
          <mxGeometry width="73" height="22" as="geometry">
            <mxRectangle width="73" height="22" as="alternateBounds" />
          </mxGeometry>
        </mxCell>
        <mxCell id="9lTHU1FHQdHA7-ZyIOY5-44" value="description" style="shape=partialRectangle;connectable=0;top=0;left=0;bottom=0;right=0;align=left;spacingLeft=2;overflow=hidden;fontSize=15;fontFamily=Helvetica;strokeWidth=2;shadow=1;" vertex="1" parent="9lTHU1FHQdHA7-ZyIOY5-42">
          <mxGeometry x="73" width="90" height="22" as="geometry">
            <mxRectangle width="90" height="22" as="alternateBounds" />
          </mxGeometry>
        </mxCell>
        <mxCell id="9lTHU1FHQdHA7-ZyIOY5-45" style="shape=tableRow;horizontal=0;startSize=0;swimlaneHead=0;swimlaneBody=0;collapsible=0;dropTarget=0;points=[[0,0.5],[1,0.5]];portConstraint=eastwest;top=0;left=0;right=0;bottom=0;fontFamily=Helvetica;fontSize=15;strokeWidth=2;shadow=1;" vertex="1" parent="9lTHU1FHQdHA7-ZyIOY5-35">
          <mxGeometry y="91" width="163" height="22" as="geometry" />
        </mxCell>
        <mxCell id="9lTHU1FHQdHA7-ZyIOY5-46" value="string" style="shape=partialRectangle;connectable=0;top=0;left=0;bottom=0;right=0;align=left;spacingLeft=2;overflow=hidden;fontSize=15;fontFamily=Helvetica;strokeWidth=2;shadow=1;" vertex="1" parent="9lTHU1FHQdHA7-ZyIOY5-45">
          <mxGeometry width="73" height="22" as="geometry">
            <mxRectangle width="73" height="22" as="alternateBounds" />
          </mxGeometry>
        </mxCell>
        <mxCell id="9lTHU1FHQdHA7-ZyIOY5-47" value="type" style="shape=partialRectangle;connectable=0;top=0;left=0;bottom=0;right=0;align=left;spacingLeft=2;overflow=hidden;fontSize=15;fontFamily=Helvetica;strokeWidth=2;shadow=1;" vertex="1" parent="9lTHU1FHQdHA7-ZyIOY5-45">
          <mxGeometry x="73" width="90" height="22" as="geometry">
            <mxRectangle width="90" height="22" as="alternateBounds" />
          </mxGeometry>
        </mxCell>
        <mxCell id="9lTHU1FHQdHA7-ZyIOY5-48" style="shape=tableRow;horizontal=0;startSize=0;swimlaneHead=0;swimlaneBody=0;collapsible=0;dropTarget=0;points=[[0,0.5],[1,0.5]];portConstraint=eastwest;top=0;left=0;right=0;bottom=0;fontFamily=Helvetica;fontSize=15;strokeWidth=2;shadow=1;" vertex="1" parent="9lTHU1FHQdHA7-ZyIOY5-35">
          <mxGeometry y="113" width="163" height="22" as="geometry" />
        </mxCell>
        <mxCell id="9lTHU1FHQdHA7-ZyIOY5-49" value="datetime" style="shape=partialRectangle;connectable=0;top=0;left=0;bottom=0;right=0;align=left;spacingLeft=2;overflow=hidden;fontSize=15;fontFamily=Helvetica;strokeWidth=2;shadow=1;" vertex="1" parent="9lTHU1FHQdHA7-ZyIOY5-48">
          <mxGeometry width="73" height="22" as="geometry">
            <mxRectangle width="73" height="22" as="alternateBounds" />
          </mxGeometry>
        </mxCell>
        <mxCell id="9lTHU1FHQdHA7-ZyIOY5-50" value="created_at" style="shape=partialRectangle;connectable=0;top=0;left=0;bottom=0;right=0;align=left;spacingLeft=2;overflow=hidden;fontSize=15;fontFamily=Helvetica;strokeWidth=2;shadow=1;" vertex="1" parent="9lTHU1FHQdHA7-ZyIOY5-48">
          <mxGeometry x="73" width="90" height="22" as="geometry">
            <mxRectangle width="90" height="22" as="alternateBounds" />
          </mxGeometry>
        </mxCell>
        <mxCell id="9lTHU1FHQdHA7-ZyIOY5-51" style="shape=tableRow;horizontal=0;startSize=0;swimlaneHead=0;swimlaneBody=0;collapsible=0;dropTarget=0;points=[[0,0.5],[1,0.5]];portConstraint=eastwest;top=0;left=0;right=0;bottom=0;fontFamily=Helvetica;fontSize=15;strokeWidth=2;shadow=1;" vertex="1" parent="9lTHU1FHQdHA7-ZyIOY5-35">
          <mxGeometry y="135" width="163" height="22" as="geometry" />
        </mxCell>
        <mxCell id="9lTHU1FHQdHA7-ZyIOY5-52" value="datetime" style="shape=partialRectangle;connectable=0;top=0;left=0;bottom=0;right=0;align=left;spacingLeft=2;overflow=hidden;fontSize=15;fontFamily=Helvetica;strokeWidth=2;shadow=1;" vertex="1" parent="9lTHU1FHQdHA7-ZyIOY5-51">
          <mxGeometry width="73" height="22" as="geometry">
            <mxRectangle width="73" height="22" as="alternateBounds" />
          </mxGeometry>
        </mxCell>
        <mxCell id="9lTHU1FHQdHA7-ZyIOY5-53" value="updated_at" style="shape=partialRectangle;connectable=0;top=0;left=0;bottom=0;right=0;align=left;spacingLeft=2;overflow=hidden;fontSize=15;fontFamily=Helvetica;strokeWidth=2;shadow=1;" vertex="1" parent="9lTHU1FHQdHA7-ZyIOY5-51">
          <mxGeometry x="73" width="90" height="22" as="geometry">
            <mxRectangle width="90" height="22" as="alternateBounds" />
          </mxGeometry>
        </mxCell>
        <mxCell id="9lTHU1FHQdHA7-ZyIOY5-54" value="PERMISSIONS" style="shape=table;startSize=25;container=1;collapsible=0;childLayout=tableLayout;fixedRows=1;rowLines=1;fontStyle=1;align=center;resizeLast=1;fontFamily=Helvetica;fontSize=15;strokeWidth=2;shadow=1;" vertex="1" parent="1">
          <mxGeometry x="25" y="86" width="175" height="135" as="geometry" />
        </mxCell>
        <mxCell id="9lTHU1FHQdHA7-ZyIOY5-55" style="shape=tableRow;horizontal=0;startSize=0;swimlaneHead=0;swimlaneBody=0;collapsible=0;dropTarget=0;points=[[0,0.5],[1,0.5]];portConstraint=eastwest;top=0;left=0;right=0;bottom=0;fontFamily=Helvetica;fontSize=15;strokeWidth=2;shadow=1;" vertex="1" parent="9lTHU1FHQdHA7-ZyIOY5-54">
          <mxGeometry y="25" width="175" height="22" as="geometry" />
        </mxCell>
        <mxCell id="9lTHU1FHQdHA7-ZyIOY5-56" value="int" style="shape=partialRectangle;connectable=0;top=0;left=0;bottom=0;right=0;align=left;spacingLeft=2;overflow=hidden;fontSize=15;fontFamily=Helvetica;strokeWidth=2;shadow=1;" vertex="1" parent="9lTHU1FHQdHA7-ZyIOY5-55">
          <mxGeometry width="65" height="22" as="geometry">
            <mxRectangle width="65" height="22" as="alternateBounds" />
          </mxGeometry>
        </mxCell>
        <mxCell id="9lTHU1FHQdHA7-ZyIOY5-57" value="id" style="shape=partialRectangle;connectable=0;top=0;left=0;bottom=0;right=0;align=left;spacingLeft=2;overflow=hidden;fontSize=15;fontFamily=Helvetica;strokeWidth=2;shadow=1;" vertex="1" parent="9lTHU1FHQdHA7-ZyIOY5-55">
          <mxGeometry x="65" width="110" height="22" as="geometry">
            <mxRectangle width="110" height="22" as="alternateBounds" />
          </mxGeometry>
        </mxCell>
        <mxCell id="9lTHU1FHQdHA7-ZyIOY5-58" style="shape=tableRow;horizontal=0;startSize=0;swimlaneHead=0;swimlaneBody=0;collapsible=0;dropTarget=0;points=[[0,0.5],[1,0.5]];portConstraint=eastwest;top=0;left=0;right=0;bottom=0;fontFamily=Helvetica;fontSize=15;strokeWidth=2;shadow=1;" vertex="1" parent="9lTHU1FHQdHA7-ZyIOY5-54">
          <mxGeometry y="47" width="175" height="22" as="geometry" />
        </mxCell>
        <mxCell id="9lTHU1FHQdHA7-ZyIOY5-59" value="string" style="shape=partialRectangle;connectable=0;top=0;left=0;bottom=0;right=0;align=left;spacingLeft=2;overflow=hidden;fontSize=15;fontFamily=Helvetica;strokeWidth=2;shadow=1;" vertex="1" parent="9lTHU1FHQdHA7-ZyIOY5-58">
          <mxGeometry width="65" height="22" as="geometry">
            <mxRectangle width="65" height="22" as="alternateBounds" />
          </mxGeometry>
        </mxCell>
        <mxCell id="9lTHU1FHQdHA7-ZyIOY5-60" value="title" style="shape=partialRectangle;connectable=0;top=0;left=0;bottom=0;right=0;align=left;spacingLeft=2;overflow=hidden;fontSize=15;fontFamily=Helvetica;strokeWidth=2;shadow=1;" vertex="1" parent="9lTHU1FHQdHA7-ZyIOY5-58">
          <mxGeometry x="65" width="110" height="22" as="geometry">
            <mxRectangle width="110" height="22" as="alternateBounds" />
          </mxGeometry>
        </mxCell>
        <mxCell id="9lTHU1FHQdHA7-ZyIOY5-61" style="shape=tableRow;horizontal=0;startSize=0;swimlaneHead=0;swimlaneBody=0;collapsible=0;dropTarget=0;points=[[0,0.5],[1,0.5]];portConstraint=eastwest;top=0;left=0;right=0;bottom=0;fontFamily=Helvetica;fontSize=15;strokeWidth=2;shadow=1;" vertex="1" parent="9lTHU1FHQdHA7-ZyIOY5-54">
          <mxGeometry y="69" width="175" height="22" as="geometry" />
        </mxCell>
        <mxCell id="9lTHU1FHQdHA7-ZyIOY5-62" value="string" style="shape=partialRectangle;connectable=0;top=0;left=0;bottom=0;right=0;align=left;spacingLeft=2;overflow=hidden;fontSize=15;fontFamily=Helvetica;strokeWidth=2;shadow=1;" vertex="1" parent="9lTHU1FHQdHA7-ZyIOY5-61">
          <mxGeometry width="65" height="22" as="geometry">
            <mxRectangle width="65" height="22" as="alternateBounds" />
          </mxGeometry>
        </mxCell>
        <mxCell id="9lTHU1FHQdHA7-ZyIOY5-63" value="description" style="shape=partialRectangle;connectable=0;top=0;left=0;bottom=0;right=0;align=left;spacingLeft=2;overflow=hidden;fontSize=15;fontFamily=Helvetica;strokeWidth=2;shadow=1;" vertex="1" parent="9lTHU1FHQdHA7-ZyIOY5-61">
          <mxGeometry x="65" width="110" height="22" as="geometry">
            <mxRectangle width="110" height="22" as="alternateBounds" />
          </mxGeometry>
        </mxCell>
        <mxCell id="9lTHU1FHQdHA7-ZyIOY5-64" style="shape=tableRow;horizontal=0;startSize=0;swimlaneHead=0;swimlaneBody=0;collapsible=0;dropTarget=0;points=[[0,0.5],[1,0.5]];portConstraint=eastwest;top=0;left=0;right=0;bottom=0;fontFamily=Helvetica;fontSize=15;strokeWidth=2;shadow=1;" vertex="1" parent="9lTHU1FHQdHA7-ZyIOY5-54">
          <mxGeometry y="91" width="175" height="22" as="geometry" />
        </mxCell>
        <mxCell id="9lTHU1FHQdHA7-ZyIOY5-65" value="datetime" style="shape=partialRectangle;connectable=0;top=0;left=0;bottom=0;right=0;align=left;spacingLeft=2;overflow=hidden;fontSize=15;fontFamily=Helvetica;strokeWidth=2;shadow=1;" vertex="1" parent="9lTHU1FHQdHA7-ZyIOY5-64">
          <mxGeometry width="65" height="22" as="geometry">
            <mxRectangle width="65" height="22" as="alternateBounds" />
          </mxGeometry>
        </mxCell>
        <mxCell id="9lTHU1FHQdHA7-ZyIOY5-66" value="created_at" style="shape=partialRectangle;connectable=0;top=0;left=0;bottom=0;right=0;align=left;spacingLeft=2;overflow=hidden;fontSize=15;fontFamily=Helvetica;strokeWidth=2;shadow=1;" vertex="1" parent="9lTHU1FHQdHA7-ZyIOY5-64">
          <mxGeometry x="65" width="110" height="22" as="geometry">
            <mxRectangle width="110" height="22" as="alternateBounds" />
          </mxGeometry>
        </mxCell>
        <mxCell id="9lTHU1FHQdHA7-ZyIOY5-67" style="shape=tableRow;horizontal=0;startSize=0;swimlaneHead=0;swimlaneBody=0;collapsible=0;dropTarget=0;points=[[0,0.5],[1,0.5]];portConstraint=eastwest;top=0;left=0;right=0;bottom=0;fontFamily=Helvetica;fontSize=15;strokeWidth=2;shadow=1;" vertex="1" parent="9lTHU1FHQdHA7-ZyIOY5-54">
          <mxGeometry y="113" width="175" height="22" as="geometry" />
        </mxCell>
        <mxCell id="9lTHU1FHQdHA7-ZyIOY5-68" value="datetime" style="shape=partialRectangle;connectable=0;top=0;left=0;bottom=0;right=0;align=left;spacingLeft=2;overflow=hidden;fontSize=15;fontFamily=Helvetica;strokeWidth=2;shadow=1;" vertex="1" parent="9lTHU1FHQdHA7-ZyIOY5-67">
          <mxGeometry width="65" height="22" as="geometry">
            <mxRectangle width="65" height="22" as="alternateBounds" />
          </mxGeometry>
        </mxCell>
        <mxCell id="9lTHU1FHQdHA7-ZyIOY5-69" value="updated_at" style="shape=partialRectangle;connectable=0;top=0;left=0;bottom=0;right=0;align=left;spacingLeft=2;overflow=hidden;fontSize=15;fontFamily=Helvetica;strokeWidth=2;shadow=1;" vertex="1" parent="9lTHU1FHQdHA7-ZyIOY5-67">
          <mxGeometry x="65" width="110" height="22" as="geometry">
            <mxRectangle width="110" height="22" as="alternateBounds" />
          </mxGeometry>
        </mxCell>
        <mxCell id="9lTHU1FHQdHA7-ZyIOY5-70" value="ROLE_PERMISSION" style="shape=table;startSize=25;container=1;collapsible=0;childLayout=tableLayout;fixedRows=1;rowLines=1;fontStyle=1;align=center;resizeLast=1;fontFamily=Helvetica;fontSize=15;strokeWidth=2;shadow=1;" vertex="1" parent="1">
          <mxGeometry x="20" y="485" width="170" height="135" as="geometry" />
        </mxCell>
        <mxCell id="9lTHU1FHQdHA7-ZyIOY5-71" style="shape=tableRow;horizontal=0;startSize=0;swimlaneHead=0;swimlaneBody=0;collapsible=0;dropTarget=0;points=[[0,0.5],[1,0.5]];portConstraint=eastwest;top=0;left=0;right=0;bottom=0;fontFamily=Helvetica;fontSize=15;strokeWidth=2;shadow=1;" vertex="1" parent="9lTHU1FHQdHA7-ZyIOY5-70">
          <mxGeometry y="25" width="170" height="22" as="geometry" />
        </mxCell>
        <mxCell id="9lTHU1FHQdHA7-ZyIOY5-72" value="int" style="shape=partialRectangle;connectable=0;top=0;left=0;bottom=0;right=0;align=left;spacingLeft=2;overflow=hidden;fontSize=15;fontFamily=Helvetica;strokeWidth=2;shadow=1;" vertex="1" parent="9lTHU1FHQdHA7-ZyIOY5-71">
          <mxGeometry width="70" height="22" as="geometry">
            <mxRectangle width="70" height="22" as="alternateBounds" />
          </mxGeometry>
        </mxCell>
        <mxCell id="9lTHU1FHQdHA7-ZyIOY5-73" value="id" style="shape=partialRectangle;connectable=0;top=0;left=0;bottom=0;right=0;align=left;spacingLeft=2;overflow=hidden;fontSize=15;fontFamily=Helvetica;strokeWidth=2;shadow=1;" vertex="1" parent="9lTHU1FHQdHA7-ZyIOY5-71">
          <mxGeometry x="70" width="100" height="22" as="geometry">
            <mxRectangle width="100" height="22" as="alternateBounds" />
          </mxGeometry>
        </mxCell>
        <mxCell id="9lTHU1FHQdHA7-ZyIOY5-74" style="shape=tableRow;horizontal=0;startSize=0;swimlaneHead=0;swimlaneBody=0;collapsible=0;dropTarget=0;points=[[0,0.5],[1,0.5]];portConstraint=eastwest;top=0;left=0;right=0;bottom=0;fontFamily=Helvetica;fontSize=15;strokeWidth=2;shadow=1;" vertex="1" parent="9lTHU1FHQdHA7-ZyIOY5-70">
          <mxGeometry y="47" width="170" height="22" as="geometry" />
        </mxCell>
        <mxCell id="9lTHU1FHQdHA7-ZyIOY5-75" value="int" style="shape=partialRectangle;connectable=0;top=0;left=0;bottom=0;right=0;align=left;spacingLeft=2;overflow=hidden;fontSize=15;fontFamily=Helvetica;strokeWidth=2;shadow=1;" vertex="1" parent="9lTHU1FHQdHA7-ZyIOY5-74">
          <mxGeometry width="70" height="22" as="geometry">
            <mxRectangle width="70" height="22" as="alternateBounds" />
          </mxGeometry>
        </mxCell>
        <mxCell id="9lTHU1FHQdHA7-ZyIOY5-76" value="role_id" style="shape=partialRectangle;connectable=0;top=0;left=0;bottom=0;right=0;align=left;spacingLeft=2;overflow=hidden;fontSize=15;fontFamily=Helvetica;strokeWidth=2;shadow=1;" vertex="1" parent="9lTHU1FHQdHA7-ZyIOY5-74">
          <mxGeometry x="70" width="100" height="22" as="geometry">
            <mxRectangle width="100" height="22" as="alternateBounds" />
          </mxGeometry>
        </mxCell>
        <mxCell id="9lTHU1FHQdHA7-ZyIOY5-77" style="shape=tableRow;horizontal=0;startSize=0;swimlaneHead=0;swimlaneBody=0;collapsible=0;dropTarget=0;points=[[0,0.5],[1,0.5]];portConstraint=eastwest;top=0;left=0;right=0;bottom=0;fontFamily=Helvetica;fontSize=15;strokeWidth=2;shadow=1;" vertex="1" parent="9lTHU1FHQdHA7-ZyIOY5-70">
          <mxGeometry y="69" width="170" height="22" as="geometry" />
        </mxCell>
        <mxCell id="9lTHU1FHQdHA7-ZyIOY5-78" value="int" style="shape=partialRectangle;connectable=0;top=0;left=0;bottom=0;right=0;align=left;spacingLeft=2;overflow=hidden;fontSize=15;fontFamily=Helvetica;strokeWidth=2;shadow=1;" vertex="1" parent="9lTHU1FHQdHA7-ZyIOY5-77">
          <mxGeometry width="70" height="22" as="geometry">
            <mxRectangle width="70" height="22" as="alternateBounds" />
          </mxGeometry>
        </mxCell>
        <mxCell id="9lTHU1FHQdHA7-ZyIOY5-79" value="permission_id" style="shape=partialRectangle;connectable=0;top=0;left=0;bottom=0;right=0;align=left;spacingLeft=2;overflow=hidden;fontSize=15;fontFamily=Helvetica;strokeWidth=2;shadow=1;" vertex="1" parent="9lTHU1FHQdHA7-ZyIOY5-77">
          <mxGeometry x="70" width="100" height="22" as="geometry">
            <mxRectangle width="100" height="22" as="alternateBounds" />
          </mxGeometry>
        </mxCell>
        <mxCell id="9lTHU1FHQdHA7-ZyIOY5-80" style="shape=tableRow;horizontal=0;startSize=0;swimlaneHead=0;swimlaneBody=0;collapsible=0;dropTarget=0;points=[[0,0.5],[1,0.5]];portConstraint=eastwest;top=0;left=0;right=0;bottom=0;fontFamily=Helvetica;fontSize=15;strokeWidth=2;shadow=1;" vertex="1" parent="9lTHU1FHQdHA7-ZyIOY5-70">
          <mxGeometry y="91" width="170" height="22" as="geometry" />
        </mxCell>
        <mxCell id="9lTHU1FHQdHA7-ZyIOY5-81" value="datetime" style="shape=partialRectangle;connectable=0;top=0;left=0;bottom=0;right=0;align=left;spacingLeft=2;overflow=hidden;fontSize=15;fontFamily=Helvetica;strokeWidth=2;shadow=1;" vertex="1" parent="9lTHU1FHQdHA7-ZyIOY5-80">
          <mxGeometry width="70" height="22" as="geometry">
            <mxRectangle width="70" height="22" as="alternateBounds" />
          </mxGeometry>
        </mxCell>
        <mxCell id="9lTHU1FHQdHA7-ZyIOY5-82" value="created_at" style="shape=partialRectangle;connectable=0;top=0;left=0;bottom=0;right=0;align=left;spacingLeft=2;overflow=hidden;fontSize=15;fontFamily=Helvetica;strokeWidth=2;shadow=1;" vertex="1" parent="9lTHU1FHQdHA7-ZyIOY5-80">
          <mxGeometry x="70" width="100" height="22" as="geometry">
            <mxRectangle width="100" height="22" as="alternateBounds" />
          </mxGeometry>
        </mxCell>
        <mxCell id="9lTHU1FHQdHA7-ZyIOY5-83" style="shape=tableRow;horizontal=0;startSize=0;swimlaneHead=0;swimlaneBody=0;collapsible=0;dropTarget=0;points=[[0,0.5],[1,0.5]];portConstraint=eastwest;top=0;left=0;right=0;bottom=0;fontFamily=Helvetica;fontSize=15;strokeWidth=2;shadow=1;" vertex="1" parent="9lTHU1FHQdHA7-ZyIOY5-70">
          <mxGeometry y="113" width="170" height="22" as="geometry" />
        </mxCell>
        <mxCell id="9lTHU1FHQdHA7-ZyIOY5-84" value="datetime" style="shape=partialRectangle;connectable=0;top=0;left=0;bottom=0;right=0;align=left;spacingLeft=2;overflow=hidden;fontSize=15;fontFamily=Helvetica;strokeWidth=2;shadow=1;" vertex="1" parent="9lTHU1FHQdHA7-ZyIOY5-83">
          <mxGeometry width="70" height="22" as="geometry">
            <mxRectangle width="70" height="22" as="alternateBounds" />
          </mxGeometry>
        </mxCell>
        <mxCell id="9lTHU1FHQdHA7-ZyIOY5-85" value="updated_at" style="shape=partialRectangle;connectable=0;top=0;left=0;bottom=0;right=0;align=left;spacingLeft=2;overflow=hidden;fontSize=15;fontFamily=Helvetica;strokeWidth=2;shadow=1;" vertex="1" parent="9lTHU1FHQdHA7-ZyIOY5-83">
          <mxGeometry x="70" width="100" height="22" as="geometry">
            <mxRectangle width="100" height="22" as="alternateBounds" />
          </mxGeometry>
        </mxCell>
        <mxCell id="9lTHU1FHQdHA7-ZyIOY5-86" value="USER_ROLE" style="shape=table;startSize=25;container=1;collapsible=0;childLayout=tableLayout;fixedRows=1;rowLines=1;fontStyle=1;align=center;resizeLast=1;fontFamily=Helvetica;fontSize=15;strokeWidth=2;shadow=1;" vertex="1" parent="1">
          <mxGeometry x="268" y="485" width="162" height="135" as="geometry" />
        </mxCell>
        <mxCell id="9lTHU1FHQdHA7-ZyIOY5-87" style="shape=tableRow;horizontal=0;startSize=0;swimlaneHead=0;swimlaneBody=0;collapsible=0;dropTarget=0;points=[[0,0.5],[1,0.5]];portConstraint=eastwest;top=0;left=0;right=0;bottom=0;fontFamily=Helvetica;fontSize=15;strokeWidth=2;shadow=1;" vertex="1" parent="9lTHU1FHQdHA7-ZyIOY5-86">
          <mxGeometry y="25" width="162" height="22" as="geometry" />
        </mxCell>
        <mxCell id="9lTHU1FHQdHA7-ZyIOY5-88" value="int" style="shape=partialRectangle;connectable=0;top=0;left=0;bottom=0;right=0;align=left;spacingLeft=2;overflow=hidden;fontSize=15;fontFamily=Helvetica;strokeWidth=2;shadow=1;" vertex="1" parent="9lTHU1FHQdHA7-ZyIOY5-87">
          <mxGeometry width="72" height="22" as="geometry">
            <mxRectangle width="72" height="22" as="alternateBounds" />
          </mxGeometry>
        </mxCell>
        <mxCell id="9lTHU1FHQdHA7-ZyIOY5-89" value="id" style="shape=partialRectangle;connectable=0;top=0;left=0;bottom=0;right=0;align=left;spacingLeft=2;overflow=hidden;fontSize=15;fontFamily=Helvetica;strokeWidth=2;shadow=1;" vertex="1" parent="9lTHU1FHQdHA7-ZyIOY5-87">
          <mxGeometry x="72" width="90" height="22" as="geometry">
            <mxRectangle width="90" height="22" as="alternateBounds" />
          </mxGeometry>
        </mxCell>
        <mxCell id="9lTHU1FHQdHA7-ZyIOY5-90" style="shape=tableRow;horizontal=0;startSize=0;swimlaneHead=0;swimlaneBody=0;collapsible=0;dropTarget=0;points=[[0,0.5],[1,0.5]];portConstraint=eastwest;top=0;left=0;right=0;bottom=0;fontFamily=Helvetica;fontSize=15;strokeWidth=2;shadow=1;" vertex="1" parent="9lTHU1FHQdHA7-ZyIOY5-86">
          <mxGeometry y="47" width="162" height="22" as="geometry" />
        </mxCell>
        <mxCell id="9lTHU1FHQdHA7-ZyIOY5-91" value="int" style="shape=partialRectangle;connectable=0;top=0;left=0;bottom=0;right=0;align=left;spacingLeft=2;overflow=hidden;fontSize=15;fontFamily=Helvetica;strokeWidth=2;shadow=1;" vertex="1" parent="9lTHU1FHQdHA7-ZyIOY5-90">
          <mxGeometry width="72" height="22" as="geometry">
            <mxRectangle width="72" height="22" as="alternateBounds" />
          </mxGeometry>
        </mxCell>
        <mxCell id="9lTHU1FHQdHA7-ZyIOY5-92" value="user_id" style="shape=partialRectangle;connectable=0;top=0;left=0;bottom=0;right=0;align=left;spacingLeft=2;overflow=hidden;fontSize=15;fontFamily=Helvetica;strokeWidth=2;shadow=1;" vertex="1" parent="9lTHU1FHQdHA7-ZyIOY5-90">
          <mxGeometry x="72" width="90" height="22" as="geometry">
            <mxRectangle width="90" height="22" as="alternateBounds" />
          </mxGeometry>
        </mxCell>
        <mxCell id="9lTHU1FHQdHA7-ZyIOY5-93" style="shape=tableRow;horizontal=0;startSize=0;swimlaneHead=0;swimlaneBody=0;collapsible=0;dropTarget=0;points=[[0,0.5],[1,0.5]];portConstraint=eastwest;top=0;left=0;right=0;bottom=0;fontFamily=Helvetica;fontSize=15;strokeWidth=2;shadow=1;" vertex="1" parent="9lTHU1FHQdHA7-ZyIOY5-86">
          <mxGeometry y="69" width="162" height="22" as="geometry" />
        </mxCell>
        <mxCell id="9lTHU1FHQdHA7-ZyIOY5-94" value="int" style="shape=partialRectangle;connectable=0;top=0;left=0;bottom=0;right=0;align=left;spacingLeft=2;overflow=hidden;fontSize=15;fontFamily=Helvetica;strokeWidth=2;shadow=1;" vertex="1" parent="9lTHU1FHQdHA7-ZyIOY5-93">
          <mxGeometry width="72" height="22" as="geometry">
            <mxRectangle width="72" height="22" as="alternateBounds" />
          </mxGeometry>
        </mxCell>
        <mxCell id="9lTHU1FHQdHA7-ZyIOY5-95" value="role_id" style="shape=partialRectangle;connectable=0;top=0;left=0;bottom=0;right=0;align=left;spacingLeft=2;overflow=hidden;fontSize=15;fontFamily=Helvetica;strokeWidth=2;shadow=1;" vertex="1" parent="9lTHU1FHQdHA7-ZyIOY5-93">
          <mxGeometry x="72" width="90" height="22" as="geometry">
            <mxRectangle width="90" height="22" as="alternateBounds" />
          </mxGeometry>
        </mxCell>
        <mxCell id="9lTHU1FHQdHA7-ZyIOY5-96" style="shape=tableRow;horizontal=0;startSize=0;swimlaneHead=0;swimlaneBody=0;collapsible=0;dropTarget=0;points=[[0,0.5],[1,0.5]];portConstraint=eastwest;top=0;left=0;right=0;bottom=0;fontFamily=Helvetica;fontSize=15;strokeWidth=2;shadow=1;" vertex="1" parent="9lTHU1FHQdHA7-ZyIOY5-86">
          <mxGeometry y="91" width="162" height="22" as="geometry" />
        </mxCell>
        <mxCell id="9lTHU1FHQdHA7-ZyIOY5-97" value="datetime" style="shape=partialRectangle;connectable=0;top=0;left=0;bottom=0;right=0;align=left;spacingLeft=2;overflow=hidden;fontSize=15;fontFamily=Helvetica;strokeWidth=2;shadow=1;" vertex="1" parent="9lTHU1FHQdHA7-ZyIOY5-96">
          <mxGeometry width="72" height="22" as="geometry">
            <mxRectangle width="72" height="22" as="alternateBounds" />
          </mxGeometry>
        </mxCell>
        <mxCell id="9lTHU1FHQdHA7-ZyIOY5-98" value="created_at" style="shape=partialRectangle;connectable=0;top=0;left=0;bottom=0;right=0;align=left;spacingLeft=2;overflow=hidden;fontSize=15;fontFamily=Helvetica;strokeWidth=2;shadow=1;" vertex="1" parent="9lTHU1FHQdHA7-ZyIOY5-96">
          <mxGeometry x="72" width="90" height="22" as="geometry">
            <mxRectangle width="90" height="22" as="alternateBounds" />
          </mxGeometry>
        </mxCell>
        <mxCell id="9lTHU1FHQdHA7-ZyIOY5-99" style="shape=tableRow;horizontal=0;startSize=0;swimlaneHead=0;swimlaneBody=0;collapsible=0;dropTarget=0;points=[[0,0.5],[1,0.5]];portConstraint=eastwest;top=0;left=0;right=0;bottom=0;fontFamily=Helvetica;fontSize=15;strokeWidth=2;shadow=1;" vertex="1" parent="9lTHU1FHQdHA7-ZyIOY5-86">
          <mxGeometry y="113" width="162" height="22" as="geometry" />
        </mxCell>
        <mxCell id="9lTHU1FHQdHA7-ZyIOY5-100" value="datetime" style="shape=partialRectangle;connectable=0;top=0;left=0;bottom=0;right=0;align=left;spacingLeft=2;overflow=hidden;fontSize=15;fontFamily=Helvetica;strokeWidth=2;shadow=1;" vertex="1" parent="9lTHU1FHQdHA7-ZyIOY5-99">
          <mxGeometry width="72" height="22" as="geometry">
            <mxRectangle width="72" height="22" as="alternateBounds" />
          </mxGeometry>
        </mxCell>
        <mxCell id="9lTHU1FHQdHA7-ZyIOY5-101" value="updated_at" style="shape=partialRectangle;connectable=0;top=0;left=0;bottom=0;right=0;align=left;spacingLeft=2;overflow=hidden;fontSize=15;fontFamily=Helvetica;strokeWidth=2;shadow=1;" vertex="1" parent="9lTHU1FHQdHA7-ZyIOY5-99">
          <mxGeometry x="72" width="90" height="22" as="geometry">
            <mxRectangle width="90" height="22" as="alternateBounds" />
          </mxGeometry>
        </mxCell>
        <mxCell id="9lTHU1FHQdHA7-ZyIOY5-102" value="RIDERDETAILS" style="shape=table;startSize=25;container=1;collapsible=0;childLayout=tableLayout;fixedRows=1;rowLines=1;fontStyle=1;align=center;resizeLast=1;fontFamily=Helvetica;fontSize=15;strokeWidth=2;shadow=1;" vertex="1" parent="1">
          <mxGeometry x="815" y="386" width="205" height="333" as="geometry" />
        </mxCell>
        <mxCell id="9lTHU1FHQdHA7-ZyIOY5-103" style="shape=tableRow;horizontal=0;startSize=0;swimlaneHead=0;swimlaneBody=0;collapsible=0;dropTarget=0;points=[[0,0.5],[1,0.5]];portConstraint=eastwest;top=0;left=0;right=0;bottom=0;fontFamily=Helvetica;fontSize=15;strokeWidth=2;shadow=1;" vertex="1" parent="9lTHU1FHQdHA7-ZyIOY5-102">
          <mxGeometry y="25" width="205" height="22" as="geometry" />
        </mxCell>
        <mxCell id="9lTHU1FHQdHA7-ZyIOY5-104" value="int" style="shape=partialRectangle;connectable=0;top=0;left=0;bottom=0;right=0;align=left;spacingLeft=2;overflow=hidden;fontSize=15;fontFamily=Helvetica;strokeWidth=2;shadow=1;" vertex="1" parent="9lTHU1FHQdHA7-ZyIOY5-103">
          <mxGeometry width="75" height="22" as="geometry">
            <mxRectangle width="75" height="22" as="alternateBounds" />
          </mxGeometry>
        </mxCell>
        <mxCell id="9lTHU1FHQdHA7-ZyIOY5-105" value="id" style="shape=partialRectangle;connectable=0;top=0;left=0;bottom=0;right=0;align=left;spacingLeft=2;overflow=hidden;fontSize=15;fontFamily=Helvetica;strokeWidth=2;shadow=1;" vertex="1" parent="9lTHU1FHQdHA7-ZyIOY5-103">
          <mxGeometry x="75" width="130" height="22" as="geometry">
            <mxRectangle width="130" height="22" as="alternateBounds" />
          </mxGeometry>
        </mxCell>
        <mxCell id="9lTHU1FHQdHA7-ZyIOY5-106" style="shape=tableRow;horizontal=0;startSize=0;swimlaneHead=0;swimlaneBody=0;collapsible=0;dropTarget=0;points=[[0,0.5],[1,0.5]];portConstraint=eastwest;top=0;left=0;right=0;bottom=0;fontFamily=Helvetica;fontSize=15;strokeWidth=2;shadow=1;" vertex="1" parent="9lTHU1FHQdHA7-ZyIOY5-102">
          <mxGeometry y="47" width="205" height="22" as="geometry" />
        </mxCell>
        <mxCell id="9lTHU1FHQdHA7-ZyIOY5-107" value="int" style="shape=partialRectangle;connectable=0;top=0;left=0;bottom=0;right=0;align=left;spacingLeft=2;overflow=hidden;fontSize=15;fontFamily=Helvetica;strokeWidth=2;shadow=1;" vertex="1" parent="9lTHU1FHQdHA7-ZyIOY5-106">
          <mxGeometry width="75" height="22" as="geometry">
            <mxRectangle width="75" height="22" as="alternateBounds" />
          </mxGeometry>
        </mxCell>
        <mxCell id="9lTHU1FHQdHA7-ZyIOY5-108" value="user_id" style="shape=partialRectangle;connectable=0;top=0;left=0;bottom=0;right=0;align=left;spacingLeft=2;overflow=hidden;fontSize=15;fontFamily=Helvetica;strokeWidth=2;shadow=1;" vertex="1" parent="9lTHU1FHQdHA7-ZyIOY5-106">
          <mxGeometry x="75" width="130" height="22" as="geometry">
            <mxRectangle width="130" height="22" as="alternateBounds" />
          </mxGeometry>
        </mxCell>
        <mxCell id="9lTHU1FHQdHA7-ZyIOY5-109" style="shape=tableRow;horizontal=0;startSize=0;swimlaneHead=0;swimlaneBody=0;collapsible=0;dropTarget=0;points=[[0,0.5],[1,0.5]];portConstraint=eastwest;top=0;left=0;right=0;bottom=0;fontFamily=Helvetica;fontSize=15;strokeWidth=2;shadow=1;" vertex="1" parent="9lTHU1FHQdHA7-ZyIOY5-102">
          <mxGeometry y="69" width="205" height="22" as="geometry" />
        </mxCell>
        <mxCell id="9lTHU1FHQdHA7-ZyIOY5-110" value="string" style="shape=partialRectangle;connectable=0;top=0;left=0;bottom=0;right=0;align=left;spacingLeft=2;overflow=hidden;fontSize=15;fontFamily=Helvetica;strokeWidth=2;shadow=1;" vertex="1" parent="9lTHU1FHQdHA7-ZyIOY5-109">
          <mxGeometry width="75" height="22" as="geometry">
            <mxRectangle width="75" height="22" as="alternateBounds" />
          </mxGeometry>
        </mxCell>
        <mxCell id="9lTHU1FHQdHA7-ZyIOY5-111" value="nid_no" style="shape=partialRectangle;connectable=0;top=0;left=0;bottom=0;right=0;align=left;spacingLeft=2;overflow=hidden;fontSize=15;fontFamily=Helvetica;strokeWidth=2;shadow=1;" vertex="1" parent="9lTHU1FHQdHA7-ZyIOY5-109">
          <mxGeometry x="75" width="130" height="22" as="geometry">
            <mxRectangle width="130" height="22" as="alternateBounds" />
          </mxGeometry>
        </mxCell>
        <mxCell id="9lTHU1FHQdHA7-ZyIOY5-112" style="shape=tableRow;horizontal=0;startSize=0;swimlaneHead=0;swimlaneBody=0;collapsible=0;dropTarget=0;points=[[0,0.5],[1,0.5]];portConstraint=eastwest;top=0;left=0;right=0;bottom=0;fontFamily=Helvetica;fontSize=15;strokeWidth=2;shadow=1;" vertex="1" parent="9lTHU1FHQdHA7-ZyIOY5-102">
          <mxGeometry y="91" width="205" height="22" as="geometry" />
        </mxCell>
        <mxCell id="9lTHU1FHQdHA7-ZyIOY5-113" value="string" style="shape=partialRectangle;connectable=0;top=0;left=0;bottom=0;right=0;align=left;spacingLeft=2;overflow=hidden;fontSize=15;fontFamily=Helvetica;strokeWidth=2;shadow=1;" vertex="1" parent="9lTHU1FHQdHA7-ZyIOY5-112">
          <mxGeometry width="75" height="22" as="geometry">
            <mxRectangle width="75" height="22" as="alternateBounds" />
          </mxGeometry>
        </mxCell>
        <mxCell id="9lTHU1FHQdHA7-ZyIOY5-114" value="nid_pic" style="shape=partialRectangle;connectable=0;top=0;left=0;bottom=0;right=0;align=left;spacingLeft=2;overflow=hidden;fontSize=15;fontFamily=Helvetica;strokeWidth=2;shadow=1;" vertex="1" parent="9lTHU1FHQdHA7-ZyIOY5-112">
          <mxGeometry x="75" width="130" height="22" as="geometry">
            <mxRectangle width="130" height="22" as="alternateBounds" />
          </mxGeometry>
        </mxCell>
        <mxCell id="9lTHU1FHQdHA7-ZyIOY5-115" style="shape=tableRow;horizontal=0;startSize=0;swimlaneHead=0;swimlaneBody=0;collapsible=0;dropTarget=0;points=[[0,0.5],[1,0.5]];portConstraint=eastwest;top=0;left=0;right=0;bottom=0;fontFamily=Helvetica;fontSize=15;strokeWidth=2;shadow=1;" vertex="1" parent="9lTHU1FHQdHA7-ZyIOY5-102">
          <mxGeometry y="113" width="205" height="22" as="geometry" />
        </mxCell>
        <mxCell id="9lTHU1FHQdHA7-ZyIOY5-116" value="string" style="shape=partialRectangle;connectable=0;top=0;left=0;bottom=0;right=0;align=left;spacingLeft=2;overflow=hidden;fontSize=15;fontFamily=Helvetica;strokeWidth=2;shadow=1;" vertex="1" parent="9lTHU1FHQdHA7-ZyIOY5-115">
          <mxGeometry width="75" height="22" as="geometry">
            <mxRectangle width="75" height="22" as="alternateBounds" />
          </mxGeometry>
        </mxCell>
        <mxCell id="9lTHU1FHQdHA7-ZyIOY5-117" value="driving_licence" style="shape=partialRectangle;connectable=0;top=0;left=0;bottom=0;right=0;align=left;spacingLeft=2;overflow=hidden;fontSize=15;fontFamily=Helvetica;strokeWidth=2;shadow=1;" vertex="1" parent="9lTHU1FHQdHA7-ZyIOY5-115">
          <mxGeometry x="75" width="130" height="22" as="geometry">
            <mxRectangle width="130" height="22" as="alternateBounds" />
          </mxGeometry>
        </mxCell>
        <mxCell id="9lTHU1FHQdHA7-ZyIOY5-118" style="shape=tableRow;horizontal=0;startSize=0;swimlaneHead=0;swimlaneBody=0;collapsible=0;dropTarget=0;points=[[0,0.5],[1,0.5]];portConstraint=eastwest;top=0;left=0;right=0;bottom=0;fontFamily=Helvetica;fontSize=15;strokeWidth=2;shadow=1;" vertex="1" parent="9lTHU1FHQdHA7-ZyIOY5-102">
          <mxGeometry y="135" width="205" height="22" as="geometry" />
        </mxCell>
        <mxCell id="9lTHU1FHQdHA7-ZyIOY5-119" value="string" style="shape=partialRectangle;connectable=0;top=0;left=0;bottom=0;right=0;align=left;spacingLeft=2;overflow=hidden;fontSize=15;fontFamily=Helvetica;strokeWidth=2;shadow=1;" vertex="1" parent="9lTHU1FHQdHA7-ZyIOY5-118">
          <mxGeometry width="75" height="22" as="geometry">
            <mxRectangle width="75" height="22" as="alternateBounds" />
          </mxGeometry>
        </mxCell>
        <mxCell id="9lTHU1FHQdHA7-ZyIOY5-120" value="driving_licence_pic" style="shape=partialRectangle;connectable=0;top=0;left=0;bottom=0;right=0;align=left;spacingLeft=2;overflow=hidden;fontSize=15;fontFamily=Helvetica;strokeWidth=2;shadow=1;" vertex="1" parent="9lTHU1FHQdHA7-ZyIOY5-118">
          <mxGeometry x="75" width="130" height="22" as="geometry">
            <mxRectangle width="130" height="22" as="alternateBounds" />
          </mxGeometry>
        </mxCell>
        <mxCell id="9lTHU1FHQdHA7-ZyIOY5-121" style="shape=tableRow;horizontal=0;startSize=0;swimlaneHead=0;swimlaneBody=0;collapsible=0;dropTarget=0;points=[[0,0.5],[1,0.5]];portConstraint=eastwest;top=0;left=0;right=0;bottom=0;fontFamily=Helvetica;fontSize=15;strokeWidth=2;shadow=1;" vertex="1" parent="9lTHU1FHQdHA7-ZyIOY5-102">
          <mxGeometry y="157" width="205" height="22" as="geometry" />
        </mxCell>
        <mxCell id="9lTHU1FHQdHA7-ZyIOY5-122" value="datetime" style="shape=partialRectangle;connectable=0;top=0;left=0;bottom=0;right=0;align=left;spacingLeft=2;overflow=hidden;fontSize=15;fontFamily=Helvetica;strokeWidth=2;shadow=1;" vertex="1" parent="9lTHU1FHQdHA7-ZyIOY5-121">
          <mxGeometry width="75" height="22" as="geometry">
            <mxRectangle width="75" height="22" as="alternateBounds" />
          </mxGeometry>
        </mxCell>
        <mxCell id="9lTHU1FHQdHA7-ZyIOY5-123" value="license_expiry_date" style="shape=partialRectangle;connectable=0;top=0;left=0;bottom=0;right=0;align=left;spacingLeft=2;overflow=hidden;fontSize=15;fontFamily=Helvetica;strokeWidth=2;shadow=1;" vertex="1" parent="9lTHU1FHQdHA7-ZyIOY5-121">
          <mxGeometry x="75" width="130" height="22" as="geometry">
            <mxRectangle width="130" height="22" as="alternateBounds" />
          </mxGeometry>
        </mxCell>
        <mxCell id="9lTHU1FHQdHA7-ZyIOY5-124" style="shape=tableRow;horizontal=0;startSize=0;swimlaneHead=0;swimlaneBody=0;collapsible=0;dropTarget=0;points=[[0,0.5],[1,0.5]];portConstraint=eastwest;top=0;left=0;right=0;bottom=0;fontFamily=Helvetica;fontSize=15;strokeWidth=2;shadow=1;" vertex="1" parent="9lTHU1FHQdHA7-ZyIOY5-102">
          <mxGeometry y="179" width="205" height="22" as="geometry" />
        </mxCell>
        <mxCell id="9lTHU1FHQdHA7-ZyIOY5-125" value="date" style="shape=partialRectangle;connectable=0;top=0;left=0;bottom=0;right=0;align=left;spacingLeft=2;overflow=hidden;fontSize=15;fontFamily=Helvetica;strokeWidth=2;shadow=1;" vertex="1" parent="9lTHU1FHQdHA7-ZyIOY5-124">
          <mxGeometry width="75" height="22" as="geometry">
            <mxRectangle width="75" height="22" as="alternateBounds" />
          </mxGeometry>
        </mxCell>
        <mxCell id="9lTHU1FHQdHA7-ZyIOY5-126" value="birth_date" style="shape=partialRectangle;connectable=0;top=0;left=0;bottom=0;right=0;align=left;spacingLeft=2;overflow=hidden;fontSize=15;fontFamily=Helvetica;strokeWidth=2;shadow=1;" vertex="1" parent="9lTHU1FHQdHA7-ZyIOY5-124">
          <mxGeometry x="75" width="130" height="22" as="geometry">
            <mxRectangle width="130" height="22" as="alternateBounds" />
          </mxGeometry>
        </mxCell>
        <mxCell id="9lTHU1FHQdHA7-ZyIOY5-127" style="shape=tableRow;horizontal=0;startSize=0;swimlaneHead=0;swimlaneBody=0;collapsible=0;dropTarget=0;points=[[0,0.5],[1,0.5]];portConstraint=eastwest;top=0;left=0;right=0;bottom=0;fontFamily=Helvetica;fontSize=15;strokeWidth=2;shadow=1;" vertex="1" parent="9lTHU1FHQdHA7-ZyIOY5-102">
          <mxGeometry y="201" width="205" height="22" as="geometry" />
        </mxCell>
        <mxCell id="9lTHU1FHQdHA7-ZyIOY5-128" value="string" style="shape=partialRectangle;connectable=0;top=0;left=0;bottom=0;right=0;align=left;spacingLeft=2;overflow=hidden;fontSize=15;fontFamily=Helvetica;strokeWidth=2;shadow=1;" vertex="1" parent="9lTHU1FHQdHA7-ZyIOY5-127">
          <mxGeometry width="75" height="22" as="geometry">
            <mxRectangle width="75" height="22" as="alternateBounds" />
          </mxGeometry>
        </mxCell>
        <mxCell id="9lTHU1FHQdHA7-ZyIOY5-129" value="status" style="shape=partialRectangle;connectable=0;top=0;left=0;bottom=0;right=0;align=left;spacingLeft=2;overflow=hidden;fontSize=15;fontFamily=Helvetica;strokeWidth=2;shadow=1;" vertex="1" parent="9lTHU1FHQdHA7-ZyIOY5-127">
          <mxGeometry x="75" width="130" height="22" as="geometry">
            <mxRectangle width="130" height="22" as="alternateBounds" />
          </mxGeometry>
        </mxCell>
        <mxCell id="9lTHU1FHQdHA7-ZyIOY5-130" style="shape=tableRow;horizontal=0;startSize=0;swimlaneHead=0;swimlaneBody=0;collapsible=0;dropTarget=0;points=[[0,0.5],[1,0.5]];portConstraint=eastwest;top=0;left=0;right=0;bottom=0;fontFamily=Helvetica;fontSize=15;strokeWidth=2;shadow=1;" vertex="1" parent="9lTHU1FHQdHA7-ZyIOY5-102">
          <mxGeometry y="223" width="205" height="22" as="geometry" />
        </mxCell>
        <mxCell id="9lTHU1FHQdHA7-ZyIOY5-131" value="string" style="shape=partialRectangle;connectable=0;top=0;left=0;bottom=0;right=0;align=left;spacingLeft=2;overflow=hidden;fontSize=15;fontFamily=Helvetica;strokeWidth=2;shadow=1;" vertex="1" parent="9lTHU1FHQdHA7-ZyIOY5-130">
          <mxGeometry width="75" height="22" as="geometry">
            <mxRectangle width="75" height="22" as="alternateBounds" />
          </mxGeometry>
        </mxCell>
        <mxCell id="9lTHU1FHQdHA7-ZyIOY5-132" value="eligibility" style="shape=partialRectangle;connectable=0;top=0;left=0;bottom=0;right=0;align=left;spacingLeft=2;overflow=hidden;fontSize=15;fontFamily=Helvetica;strokeWidth=2;shadow=1;" vertex="1" parent="9lTHU1FHQdHA7-ZyIOY5-130">
          <mxGeometry x="75" width="130" height="22" as="geometry">
            <mxRectangle width="130" height="22" as="alternateBounds" />
          </mxGeometry>
        </mxCell>
        <mxCell id="9lTHU1FHQdHA7-ZyIOY5-133" style="shape=tableRow;horizontal=0;startSize=0;swimlaneHead=0;swimlaneBody=0;collapsible=0;dropTarget=0;points=[[0,0.5],[1,0.5]];portConstraint=eastwest;top=0;left=0;right=0;bottom=0;fontFamily=Helvetica;fontSize=15;strokeWidth=2;shadow=1;" vertex="1" parent="9lTHU1FHQdHA7-ZyIOY5-102">
          <mxGeometry y="245" width="205" height="22" as="geometry" />
        </mxCell>
        <mxCell id="9lTHU1FHQdHA7-ZyIOY5-134" value="string" style="shape=partialRectangle;connectable=0;top=0;left=0;bottom=0;right=0;align=left;spacingLeft=2;overflow=hidden;fontSize=15;fontFamily=Helvetica;strokeWidth=2;shadow=1;" vertex="1" parent="9lTHU1FHQdHA7-ZyIOY5-133">
          <mxGeometry width="75" height="22" as="geometry">
            <mxRectangle width="75" height="22" as="alternateBounds" />
          </mxGeometry>
        </mxCell>
        <mxCell id="9lTHU1FHQdHA7-ZyIOY5-135" value="vehicle_type" style="shape=partialRectangle;connectable=0;top=0;left=0;bottom=0;right=0;align=left;spacingLeft=2;overflow=hidden;fontSize=15;fontFamily=Helvetica;strokeWidth=2;shadow=1;" vertex="1" parent="9lTHU1FHQdHA7-ZyIOY5-133">
          <mxGeometry x="75" width="130" height="22" as="geometry">
            <mxRectangle width="130" height="22" as="alternateBounds" />
          </mxGeometry>
        </mxCell>
        <mxCell id="9lTHU1FHQdHA7-ZyIOY5-136" style="shape=tableRow;horizontal=0;startSize=0;swimlaneHead=0;swimlaneBody=0;collapsible=0;dropTarget=0;points=[[0,0.5],[1,0.5]];portConstraint=eastwest;top=0;left=0;right=0;bottom=0;fontFamily=Helvetica;fontSize=15;strokeWidth=2;shadow=1;" vertex="1" parent="9lTHU1FHQdHA7-ZyIOY5-102">
          <mxGeometry y="267" width="205" height="22" as="geometry" />
        </mxCell>
        <mxCell id="9lTHU1FHQdHA7-ZyIOY5-137" value="boolean" style="shape=partialRectangle;connectable=0;top=0;left=0;bottom=0;right=0;align=left;spacingLeft=2;overflow=hidden;fontSize=15;fontFamily=Helvetica;strokeWidth=2;shadow=1;" vertex="1" parent="9lTHU1FHQdHA7-ZyIOY5-136">
          <mxGeometry width="75" height="22" as="geometry">
            <mxRectangle width="75" height="22" as="alternateBounds" />
          </mxGeometry>
        </mxCell>
        <mxCell id="9lTHU1FHQdHA7-ZyIOY5-138" value="profile_completed" style="shape=partialRectangle;connectable=0;top=0;left=0;bottom=0;right=0;align=left;spacingLeft=2;overflow=hidden;fontSize=15;fontFamily=Helvetica;strokeWidth=2;shadow=1;" vertex="1" parent="9lTHU1FHQdHA7-ZyIOY5-136">
          <mxGeometry x="75" width="130" height="22" as="geometry">
            <mxRectangle width="130" height="22" as="alternateBounds" />
          </mxGeometry>
        </mxCell>
        <mxCell id="9lTHU1FHQdHA7-ZyIOY5-139" style="shape=tableRow;horizontal=0;startSize=0;swimlaneHead=0;swimlaneBody=0;collapsible=0;dropTarget=0;points=[[0,0.5],[1,0.5]];portConstraint=eastwest;top=0;left=0;right=0;bottom=0;fontFamily=Helvetica;fontSize=15;strokeWidth=2;shadow=1;" vertex="1" parent="9lTHU1FHQdHA7-ZyIOY5-102">
          <mxGeometry y="289" width="205" height="22" as="geometry" />
        </mxCell>
        <mxCell id="9lTHU1FHQdHA7-ZyIOY5-140" value="datetime" style="shape=partialRectangle;connectable=0;top=0;left=0;bottom=0;right=0;align=left;spacingLeft=2;overflow=hidden;fontSize=15;fontFamily=Helvetica;strokeWidth=2;shadow=1;" vertex="1" parent="9lTHU1FHQdHA7-ZyIOY5-139">
          <mxGeometry width="75" height="22" as="geometry">
            <mxRectangle width="75" height="22" as="alternateBounds" />
          </mxGeometry>
        </mxCell>
        <mxCell id="9lTHU1FHQdHA7-ZyIOY5-141" value="created_at" style="shape=partialRectangle;connectable=0;top=0;left=0;bottom=0;right=0;align=left;spacingLeft=2;overflow=hidden;fontSize=15;fontFamily=Helvetica;strokeWidth=2;shadow=1;" vertex="1" parent="9lTHU1FHQdHA7-ZyIOY5-139">
          <mxGeometry x="75" width="130" height="22" as="geometry">
            <mxRectangle width="130" height="22" as="alternateBounds" />
          </mxGeometry>
        </mxCell>
        <mxCell id="9lTHU1FHQdHA7-ZyIOY5-142" style="shape=tableRow;horizontal=0;startSize=0;swimlaneHead=0;swimlaneBody=0;collapsible=0;dropTarget=0;points=[[0,0.5],[1,0.5]];portConstraint=eastwest;top=0;left=0;right=0;bottom=0;fontFamily=Helvetica;fontSize=15;strokeWidth=2;shadow=1;" vertex="1" parent="9lTHU1FHQdHA7-ZyIOY5-102">
          <mxGeometry y="311" width="205" height="22" as="geometry" />
        </mxCell>
        <mxCell id="9lTHU1FHQdHA7-ZyIOY5-143" value="datetime" style="shape=partialRectangle;connectable=0;top=0;left=0;bottom=0;right=0;align=left;spacingLeft=2;overflow=hidden;fontSize=15;fontFamily=Helvetica;strokeWidth=2;shadow=1;" vertex="1" parent="9lTHU1FHQdHA7-ZyIOY5-142">
          <mxGeometry width="75" height="22" as="geometry">
            <mxRectangle width="75" height="22" as="alternateBounds" />
          </mxGeometry>
        </mxCell>
        <mxCell id="9lTHU1FHQdHA7-ZyIOY5-144" value="updated_at" style="shape=partialRectangle;connectable=0;top=0;left=0;bottom=0;right=0;align=left;spacingLeft=2;overflow=hidden;fontSize=15;fontFamily=Helvetica;strokeWidth=2;shadow=1;" vertex="1" parent="9lTHU1FHQdHA7-ZyIOY5-142">
          <mxGeometry x="75" width="130" height="22" as="geometry">
            <mxRectangle width="130" height="22" as="alternateBounds" />
          </mxGeometry>
        </mxCell>
        <mxCell id="9lTHU1FHQdHA7-ZyIOY5-145" value="PARCELS" style="shape=table;startSize=25;container=1;collapsible=0;childLayout=tableLayout;fixedRows=1;rowLines=1;fontStyle=1;align=center;resizeLast=1;fontFamily=Helvetica;fontSize=15;strokeWidth=2;shadow=1;" vertex="1" parent="1">
          <mxGeometry x="561" y="818" width="229" height="465" as="geometry" />
        </mxCell>
        <mxCell id="9lTHU1FHQdHA7-ZyIOY5-146" style="shape=tableRow;horizontal=0;startSize=0;swimlaneHead=0;swimlaneBody=0;collapsible=0;dropTarget=0;points=[[0,0.5],[1,0.5]];portConstraint=eastwest;top=0;left=0;right=0;bottom=0;fontFamily=Helvetica;fontSize=15;strokeWidth=2;shadow=1;" vertex="1" parent="9lTHU1FHQdHA7-ZyIOY5-145">
          <mxGeometry y="25" width="229" height="22" as="geometry" />
        </mxCell>
        <mxCell id="9lTHU1FHQdHA7-ZyIOY5-147" value="int" style="shape=partialRectangle;connectable=0;top=0;left=0;bottom=0;right=0;align=left;spacingLeft=2;overflow=hidden;fontSize=15;fontFamily=Helvetica;strokeWidth=2;shadow=1;" vertex="1" parent="9lTHU1FHQdHA7-ZyIOY5-146">
          <mxGeometry width="89" height="22" as="geometry">
            <mxRectangle width="89" height="22" as="alternateBounds" />
          </mxGeometry>
        </mxCell>
        <mxCell id="9lTHU1FHQdHA7-ZyIOY5-148" value="id" style="shape=partialRectangle;connectable=0;top=0;left=0;bottom=0;right=0;align=left;spacingLeft=2;overflow=hidden;fontSize=15;fontFamily=Helvetica;strokeWidth=2;shadow=1;" vertex="1" parent="9lTHU1FHQdHA7-ZyIOY5-146">
          <mxGeometry x="89" width="140" height="22" as="geometry">
            <mxRectangle width="140" height="22" as="alternateBounds" />
          </mxGeometry>
        </mxCell>
        <mxCell id="9lTHU1FHQdHA7-ZyIOY5-149" style="shape=tableRow;horizontal=0;startSize=0;swimlaneHead=0;swimlaneBody=0;collapsible=0;dropTarget=0;points=[[0,0.5],[1,0.5]];portConstraint=eastwest;top=0;left=0;right=0;bottom=0;fontFamily=Helvetica;fontSize=15;strokeWidth=2;shadow=1;" vertex="1" parent="9lTHU1FHQdHA7-ZyIOY5-145">
          <mxGeometry y="47" width="229" height="22" as="geometry" />
        </mxCell>
        <mxCell id="9lTHU1FHQdHA7-ZyIOY5-150" value="string" style="shape=partialRectangle;connectable=0;top=0;left=0;bottom=0;right=0;align=left;spacingLeft=2;overflow=hidden;fontSize=15;fontFamily=Helvetica;strokeWidth=2;shadow=1;" vertex="1" parent="9lTHU1FHQdHA7-ZyIOY5-149">
          <mxGeometry width="89" height="22" as="geometry">
            <mxRectangle width="89" height="22" as="alternateBounds" />
          </mxGeometry>
        </mxCell>
        <mxCell id="9lTHU1FHQdHA7-ZyIOY5-151" value="description" style="shape=partialRectangle;connectable=0;top=0;left=0;bottom=0;right=0;align=left;spacingLeft=2;overflow=hidden;fontSize=15;fontFamily=Helvetica;strokeWidth=2;shadow=1;" vertex="1" parent="9lTHU1FHQdHA7-ZyIOY5-149">
          <mxGeometry x="89" width="140" height="22" as="geometry">
            <mxRectangle width="140" height="22" as="alternateBounds" />
          </mxGeometry>
        </mxCell>
        <mxCell id="9lTHU1FHQdHA7-ZyIOY5-152" style="shape=tableRow;horizontal=0;startSize=0;swimlaneHead=0;swimlaneBody=0;collapsible=0;dropTarget=0;points=[[0,0.5],[1,0.5]];portConstraint=eastwest;top=0;left=0;right=0;bottom=0;fontFamily=Helvetica;fontSize=15;strokeWidth=2;shadow=1;" vertex="1" parent="9lTHU1FHQdHA7-ZyIOY5-145">
          <mxGeometry y="69" width="229" height="22" as="geometry" />
        </mxCell>
        <mxCell id="9lTHU1FHQdHA7-ZyIOY5-153" value="float" style="shape=partialRectangle;connectable=0;top=0;left=0;bottom=0;right=0;align=left;spacingLeft=2;overflow=hidden;fontSize=15;fontFamily=Helvetica;strokeWidth=2;shadow=1;" vertex="1" parent="9lTHU1FHQdHA7-ZyIOY5-152">
          <mxGeometry width="89" height="22" as="geometry">
            <mxRectangle width="89" height="22" as="alternateBounds" />
          </mxGeometry>
        </mxCell>
        <mxCell id="9lTHU1FHQdHA7-ZyIOY5-154" value="weight" style="shape=partialRectangle;connectable=0;top=0;left=0;bottom=0;right=0;align=left;spacingLeft=2;overflow=hidden;fontSize=15;fontFamily=Helvetica;strokeWidth=2;shadow=1;" vertex="1" parent="9lTHU1FHQdHA7-ZyIOY5-152">
          <mxGeometry x="89" width="140" height="22" as="geometry">
            <mxRectangle width="140" height="22" as="alternateBounds" />
          </mxGeometry>
        </mxCell>
        <mxCell id="9lTHU1FHQdHA7-ZyIOY5-155" style="shape=tableRow;horizontal=0;startSize=0;swimlaneHead=0;swimlaneBody=0;collapsible=0;dropTarget=0;points=[[0,0.5],[1,0.5]];portConstraint=eastwest;top=0;left=0;right=0;bottom=0;fontFamily=Helvetica;fontSize=15;strokeWidth=2;shadow=1;" vertex="1" parent="9lTHU1FHQdHA7-ZyIOY5-145">
          <mxGeometry y="91" width="229" height="22" as="geometry" />
        </mxCell>
        <mxCell id="9lTHU1FHQdHA7-ZyIOY5-156" value="float" style="shape=partialRectangle;connectable=0;top=0;left=0;bottom=0;right=0;align=left;spacingLeft=2;overflow=hidden;fontSize=15;fontFamily=Helvetica;strokeWidth=2;shadow=1;" vertex="1" parent="9lTHU1FHQdHA7-ZyIOY5-155">
          <mxGeometry width="89" height="22" as="geometry">
            <mxRectangle width="89" height="22" as="alternateBounds" />
          </mxGeometry>
        </mxCell>
        <mxCell id="9lTHU1FHQdHA7-ZyIOY5-157" value="size" style="shape=partialRectangle;connectable=0;top=0;left=0;bottom=0;right=0;align=left;spacingLeft=2;overflow=hidden;fontSize=15;fontFamily=Helvetica;strokeWidth=2;shadow=1;" vertex="1" parent="9lTHU1FHQdHA7-ZyIOY5-155">
          <mxGeometry x="89" width="140" height="22" as="geometry">
            <mxRectangle width="140" height="22" as="alternateBounds" />
          </mxGeometry>
        </mxCell>
        <mxCell id="9lTHU1FHQdHA7-ZyIOY5-158" style="shape=tableRow;horizontal=0;startSize=0;swimlaneHead=0;swimlaneBody=0;collapsible=0;dropTarget=0;points=[[0,0.5],[1,0.5]];portConstraint=eastwest;top=0;left=0;right=0;bottom=0;fontFamily=Helvetica;fontSize=15;strokeWidth=2;shadow=1;" vertex="1" parent="9lTHU1FHQdHA7-ZyIOY5-145">
          <mxGeometry y="113" width="229" height="22" as="geometry" />
        </mxCell>
        <mxCell id="9lTHU1FHQdHA7-ZyIOY5-159" value="geometry" style="shape=partialRectangle;connectable=0;top=0;left=0;bottom=0;right=0;align=left;spacingLeft=2;overflow=hidden;fontSize=15;fontFamily=Helvetica;strokeWidth=2;shadow=1;" vertex="1" parent="9lTHU1FHQdHA7-ZyIOY5-158">
          <mxGeometry width="89" height="22" as="geometry">
            <mxRectangle width="89" height="22" as="alternateBounds" />
          </mxGeometry>
        </mxCell>
        <mxCell id="9lTHU1FHQdHA7-ZyIOY5-160" value="pickup_location" style="shape=partialRectangle;connectable=0;top=0;left=0;bottom=0;right=0;align=left;spacingLeft=2;overflow=hidden;fontSize=15;fontFamily=Helvetica;strokeWidth=2;shadow=1;" vertex="1" parent="9lTHU1FHQdHA7-ZyIOY5-158">
          <mxGeometry x="89" width="140" height="22" as="geometry">
            <mxRectangle width="140" height="22" as="alternateBounds" />
          </mxGeometry>
        </mxCell>
        <mxCell id="9lTHU1FHQdHA7-ZyIOY5-161" style="shape=tableRow;horizontal=0;startSize=0;swimlaneHead=0;swimlaneBody=0;collapsible=0;dropTarget=0;points=[[0,0.5],[1,0.5]];portConstraint=eastwest;top=0;left=0;right=0;bottom=0;fontFamily=Helvetica;fontSize=15;strokeWidth=2;shadow=1;" vertex="1" parent="9lTHU1FHQdHA7-ZyIOY5-145">
          <mxGeometry y="135" width="229" height="22" as="geometry" />
        </mxCell>
        <mxCell id="9lTHU1FHQdHA7-ZyIOY5-162" value="string" style="shape=partialRectangle;connectable=0;top=0;left=0;bottom=0;right=0;align=left;spacingLeft=2;overflow=hidden;fontSize=15;fontFamily=Helvetica;strokeWidth=2;shadow=1;" vertex="1" parent="9lTHU1FHQdHA7-ZyIOY5-161">
          <mxGeometry width="89" height="22" as="geometry">
            <mxRectangle width="89" height="22" as="alternateBounds" />
          </mxGeometry>
        </mxCell>
        <mxCell id="9lTHU1FHQdHA7-ZyIOY5-163" value="receiver_name" style="shape=partialRectangle;connectable=0;top=0;left=0;bottom=0;right=0;align=left;spacingLeft=2;overflow=hidden;fontSize=15;fontFamily=Helvetica;strokeWidth=2;shadow=1;" vertex="1" parent="9lTHU1FHQdHA7-ZyIOY5-161">
          <mxGeometry x="89" width="140" height="22" as="geometry">
            <mxRectangle width="140" height="22" as="alternateBounds" />
          </mxGeometry>
        </mxCell>
        <mxCell id="9lTHU1FHQdHA7-ZyIOY5-164" style="shape=tableRow;horizontal=0;startSize=0;swimlaneHead=0;swimlaneBody=0;collapsible=0;dropTarget=0;points=[[0,0.5],[1,0.5]];portConstraint=eastwest;top=0;left=0;right=0;bottom=0;fontFamily=Helvetica;fontSize=15;strokeWidth=2;shadow=1;" vertex="1" parent="9lTHU1FHQdHA7-ZyIOY5-145">
          <mxGeometry y="157" width="229" height="22" as="geometry" />
        </mxCell>
        <mxCell id="9lTHU1FHQdHA7-ZyIOY5-165" value="string" style="shape=partialRectangle;connectable=0;top=0;left=0;bottom=0;right=0;align=left;spacingLeft=2;overflow=hidden;fontSize=15;fontFamily=Helvetica;strokeWidth=2;shadow=1;" vertex="1" parent="9lTHU1FHQdHA7-ZyIOY5-164">
          <mxGeometry width="89" height="22" as="geometry">
            <mxRectangle width="89" height="22" as="alternateBounds" />
          </mxGeometry>
        </mxCell>
        <mxCell id="9lTHU1FHQdHA7-ZyIOY5-166" value="receiver_phone" style="shape=partialRectangle;connectable=0;top=0;left=0;bottom=0;right=0;align=left;spacingLeft=2;overflow=hidden;fontSize=15;fontFamily=Helvetica;strokeWidth=2;shadow=1;" vertex="1" parent="9lTHU1FHQdHA7-ZyIOY5-164">
          <mxGeometry x="89" width="140" height="22" as="geometry">
            <mxRectangle width="140" height="22" as="alternateBounds" />
          </mxGeometry>
        </mxCell>
        <mxCell id="9lTHU1FHQdHA7-ZyIOY5-167" style="shape=tableRow;horizontal=0;startSize=0;swimlaneHead=0;swimlaneBody=0;collapsible=0;dropTarget=0;points=[[0,0.5],[1,0.5]];portConstraint=eastwest;top=0;left=0;right=0;bottom=0;fontFamily=Helvetica;fontSize=15;strokeWidth=2;shadow=1;" vertex="1" parent="9lTHU1FHQdHA7-ZyIOY5-145">
          <mxGeometry y="179" width="229" height="22" as="geometry" />
        </mxCell>
        <mxCell id="9lTHU1FHQdHA7-ZyIOY5-168" value="string" style="shape=partialRectangle;connectable=0;top=0;left=0;bottom=0;right=0;align=left;spacingLeft=2;overflow=hidden;fontSize=15;fontFamily=Helvetica;strokeWidth=2;shadow=1;" vertex="1" parent="9lTHU1FHQdHA7-ZyIOY5-167">
          <mxGeometry width="89" height="22" as="geometry">
            <mxRectangle width="89" height="22" as="alternateBounds" />
          </mxGeometry>
        </mxCell>
        <mxCell id="9lTHU1FHQdHA7-ZyIOY5-169" value="receiver_email" style="shape=partialRectangle;connectable=0;top=0;left=0;bottom=0;right=0;align=left;spacingLeft=2;overflow=hidden;fontSize=15;fontFamily=Helvetica;strokeWidth=2;shadow=1;" vertex="1" parent="9lTHU1FHQdHA7-ZyIOY5-167">
          <mxGeometry x="89" width="140" height="22" as="geometry">
            <mxRectangle width="140" height="22" as="alternateBounds" />
          </mxGeometry>
        </mxCell>
        <mxCell id="9lTHU1FHQdHA7-ZyIOY5-170" style="shape=tableRow;horizontal=0;startSize=0;swimlaneHead=0;swimlaneBody=0;collapsible=0;dropTarget=0;points=[[0,0.5],[1,0.5]];portConstraint=eastwest;top=0;left=0;right=0;bottom=0;fontFamily=Helvetica;fontSize=15;strokeWidth=2;shadow=1;" vertex="1" parent="9lTHU1FHQdHA7-ZyIOY5-145">
          <mxGeometry y="201" width="229" height="22" as="geometry" />
        </mxCell>
        <mxCell id="9lTHU1FHQdHA7-ZyIOY5-171" value="string" style="shape=partialRectangle;connectable=0;top=0;left=0;bottom=0;right=0;align=left;spacingLeft=2;overflow=hidden;fontSize=15;fontFamily=Helvetica;strokeWidth=2;shadow=1;" vertex="1" parent="9lTHU1FHQdHA7-ZyIOY5-170">
          <mxGeometry width="89" height="22" as="geometry">
            <mxRectangle width="89" height="22" as="alternateBounds" />
          </mxGeometry>
        </mxCell>
        <mxCell id="9lTHU1FHQdHA7-ZyIOY5-172" value="receiver_address" style="shape=partialRectangle;connectable=0;top=0;left=0;bottom=0;right=0;align=left;spacingLeft=2;overflow=hidden;fontSize=15;fontFamily=Helvetica;strokeWidth=2;shadow=1;" vertex="1" parent="9lTHU1FHQdHA7-ZyIOY5-170">
          <mxGeometry x="89" width="140" height="22" as="geometry">
            <mxRectangle width="140" height="22" as="alternateBounds" />
          </mxGeometry>
        </mxCell>
        <mxCell id="9lTHU1FHQdHA7-ZyIOY5-173" style="shape=tableRow;horizontal=0;startSize=0;swimlaneHead=0;swimlaneBody=0;collapsible=0;dropTarget=0;points=[[0,0.5],[1,0.5]];portConstraint=eastwest;top=0;left=0;right=0;bottom=0;fontFamily=Helvetica;fontSize=15;strokeWidth=2;shadow=1;" vertex="1" parent="9lTHU1FHQdHA7-ZyIOY5-145">
          <mxGeometry y="223" width="229" height="22" as="geometry" />
        </mxCell>
        <mxCell id="9lTHU1FHQdHA7-ZyIOY5-174" value="geometry" style="shape=partialRectangle;connectable=0;top=0;left=0;bottom=0;right=0;align=left;spacingLeft=2;overflow=hidden;fontSize=15;fontFamily=Helvetica;strokeWidth=2;shadow=1;" vertex="1" parent="9lTHU1FHQdHA7-ZyIOY5-173">
          <mxGeometry width="89" height="22" as="geometry">
            <mxRectangle width="89" height="22" as="alternateBounds" />
          </mxGeometry>
        </mxCell>
        <mxCell id="9lTHU1FHQdHA7-ZyIOY5-175" value="receiver_location" style="shape=partialRectangle;connectable=0;top=0;left=0;bottom=0;right=0;align=left;spacingLeft=2;overflow=hidden;fontSize=15;fontFamily=Helvetica;strokeWidth=2;shadow=1;" vertex="1" parent="9lTHU1FHQdHA7-ZyIOY5-173">
          <mxGeometry x="89" width="140" height="22" as="geometry">
            <mxRectangle width="140" height="22" as="alternateBounds" />
          </mxGeometry>
        </mxCell>
        <mxCell id="9lTHU1FHQdHA7-ZyIOY5-176" style="shape=tableRow;horizontal=0;startSize=0;swimlaneHead=0;swimlaneBody=0;collapsible=0;dropTarget=0;points=[[0,0.5],[1,0.5]];portConstraint=eastwest;top=0;left=0;right=0;bottom=0;fontFamily=Helvetica;fontSize=15;strokeWidth=2;shadow=1;" vertex="1" parent="9lTHU1FHQdHA7-ZyIOY5-145">
          <mxGeometry y="245" width="229" height="22" as="geometry" />
        </mxCell>
        <mxCell id="9lTHU1FHQdHA7-ZyIOY5-177" value="string" style="shape=partialRectangle;connectable=0;top=0;left=0;bottom=0;right=0;align=left;spacingLeft=2;overflow=hidden;fontSize=15;fontFamily=Helvetica;strokeWidth=2;shadow=1;" vertex="1" parent="9lTHU1FHQdHA7-ZyIOY5-176">
          <mxGeometry width="89" height="22" as="geometry">
            <mxRectangle width="89" height="22" as="alternateBounds" />
          </mxGeometry>
        </mxCell>
        <mxCell id="9lTHU1FHQdHA7-ZyIOY5-178" value="receiver_otp" style="shape=partialRectangle;connectable=0;top=0;left=0;bottom=0;right=0;align=left;spacingLeft=2;overflow=hidden;fontSize=15;fontFamily=Helvetica;strokeWidth=2;shadow=1;" vertex="1" parent="9lTHU1FHQdHA7-ZyIOY5-176">
          <mxGeometry x="89" width="140" height="22" as="geometry">
            <mxRectangle width="140" height="22" as="alternateBounds" />
          </mxGeometry>
        </mxCell>
        <mxCell id="9lTHU1FHQdHA7-ZyIOY5-179" style="shape=tableRow;horizontal=0;startSize=0;swimlaneHead=0;swimlaneBody=0;collapsible=0;dropTarget=0;points=[[0,0.5],[1,0.5]];portConstraint=eastwest;top=0;left=0;right=0;bottom=0;fontFamily=Helvetica;fontSize=15;strokeWidth=2;shadow=1;" vertex="1" parent="9lTHU1FHQdHA7-ZyIOY5-145">
          <mxGeometry y="267" width="229" height="22" as="geometry" />
        </mxCell>
        <mxCell id="9lTHU1FHQdHA7-ZyIOY5-180" value="int" style="shape=partialRectangle;connectable=0;top=0;left=0;bottom=0;right=0;align=left;spacingLeft=2;overflow=hidden;fontSize=15;fontFamily=Helvetica;strokeWidth=2;shadow=1;" vertex="1" parent="9lTHU1FHQdHA7-ZyIOY5-179">
          <mxGeometry width="89" height="22" as="geometry">
            <mxRectangle width="89" height="22" as="alternateBounds" />
          </mxGeometry>
        </mxCell>
        <mxCell id="9lTHU1FHQdHA7-ZyIOY5-181" value="sender_id" style="shape=partialRectangle;connectable=0;top=0;left=0;bottom=0;right=0;align=left;spacingLeft=2;overflow=hidden;fontSize=15;fontFamily=Helvetica;strokeWidth=2;shadow=1;" vertex="1" parent="9lTHU1FHQdHA7-ZyIOY5-179">
          <mxGeometry x="89" width="140" height="22" as="geometry">
            <mxRectangle width="140" height="22" as="alternateBounds" />
          </mxGeometry>
        </mxCell>
        <mxCell id="9lTHU1FHQdHA7-ZyIOY5-182" style="shape=tableRow;horizontal=0;startSize=0;swimlaneHead=0;swimlaneBody=0;collapsible=0;dropTarget=0;points=[[0,0.5],[1,0.5]];portConstraint=eastwest;top=0;left=0;right=0;bottom=0;fontFamily=Helvetica;fontSize=15;strokeWidth=2;shadow=1;" vertex="1" parent="9lTHU1FHQdHA7-ZyIOY5-145">
          <mxGeometry y="289" width="229" height="22" as="geometry" />
        </mxCell>
        <mxCell id="9lTHU1FHQdHA7-ZyIOY5-183" value="int" style="shape=partialRectangle;connectable=0;top=0;left=0;bottom=0;right=0;align=left;spacingLeft=2;overflow=hidden;fontSize=15;fontFamily=Helvetica;strokeWidth=2;shadow=1;" vertex="1" parent="9lTHU1FHQdHA7-ZyIOY5-182">
          <mxGeometry width="89" height="22" as="geometry">
            <mxRectangle width="89" height="22" as="alternateBounds" />
          </mxGeometry>
        </mxCell>
        <mxCell id="9lTHU1FHQdHA7-ZyIOY5-184" value="rider_id" style="shape=partialRectangle;connectable=0;top=0;left=0;bottom=0;right=0;align=left;spacingLeft=2;overflow=hidden;fontSize=15;fontFamily=Helvetica;strokeWidth=2;shadow=1;" vertex="1" parent="9lTHU1FHQdHA7-ZyIOY5-182">
          <mxGeometry x="89" width="140" height="22" as="geometry">
            <mxRectangle width="140" height="22" as="alternateBounds" />
          </mxGeometry>
        </mxCell>
        <mxCell id="9lTHU1FHQdHA7-ZyIOY5-185" style="shape=tableRow;horizontal=0;startSize=0;swimlaneHead=0;swimlaneBody=0;collapsible=0;dropTarget=0;points=[[0,0.5],[1,0.5]];portConstraint=eastwest;top=0;left=0;right=0;bottom=0;fontFamily=Helvetica;fontSize=15;strokeWidth=2;shadow=1;" vertex="1" parent="9lTHU1FHQdHA7-ZyIOY5-145">
          <mxGeometry y="311" width="229" height="22" as="geometry" />
        </mxCell>
        <mxCell id="9lTHU1FHQdHA7-ZyIOY5-186" value="string" style="shape=partialRectangle;connectable=0;top=0;left=0;bottom=0;right=0;align=left;spacingLeft=2;overflow=hidden;fontSize=15;fontFamily=Helvetica;strokeWidth=2;shadow=1;" vertex="1" parent="9lTHU1FHQdHA7-ZyIOY5-185">
          <mxGeometry width="89" height="22" as="geometry">
            <mxRectangle width="89" height="22" as="alternateBounds" />
          </mxGeometry>
        </mxCell>
        <mxCell id="9lTHU1FHQdHA7-ZyIOY5-187" value="rider_otp" style="shape=partialRectangle;connectable=0;top=0;left=0;bottom=0;right=0;align=left;spacingLeft=2;overflow=hidden;fontSize=15;fontFamily=Helvetica;strokeWidth=2;shadow=1;" vertex="1" parent="9lTHU1FHQdHA7-ZyIOY5-185">
          <mxGeometry x="89" width="140" height="22" as="geometry">
            <mxRectangle width="140" height="22" as="alternateBounds" />
          </mxGeometry>
        </mxCell>
        <mxCell id="9lTHU1FHQdHA7-ZyIOY5-188" style="shape=tableRow;horizontal=0;startSize=0;swimlaneHead=0;swimlaneBody=0;collapsible=0;dropTarget=0;points=[[0,0.5],[1,0.5]];portConstraint=eastwest;top=0;left=0;right=0;bottom=0;fontFamily=Helvetica;fontSize=15;strokeWidth=2;shadow=1;" vertex="1" parent="9lTHU1FHQdHA7-ZyIOY5-145">
          <mxGeometry y="333" width="229" height="22" as="geometry" />
        </mxCell>
        <mxCell id="9lTHU1FHQdHA7-ZyIOY5-189" value="string" style="shape=partialRectangle;connectable=0;top=0;left=0;bottom=0;right=0;align=left;spacingLeft=2;overflow=hidden;fontSize=15;fontFamily=Helvetica;strokeWidth=2;shadow=1;" vertex="1" parent="9lTHU1FHQdHA7-ZyIOY5-188">
          <mxGeometry width="89" height="22" as="geometry">
            <mxRectangle width="89" height="22" as="alternateBounds" />
          </mxGeometry>
        </mxCell>
        <mxCell id="9lTHU1FHQdHA7-ZyIOY5-190" value="status" style="shape=partialRectangle;connectable=0;top=0;left=0;bottom=0;right=0;align=left;spacingLeft=2;overflow=hidden;fontSize=15;fontFamily=Helvetica;strokeWidth=2;shadow=1;" vertex="1" parent="9lTHU1FHQdHA7-ZyIOY5-188">
          <mxGeometry x="89" width="140" height="22" as="geometry">
            <mxRectangle width="140" height="22" as="alternateBounds" />
          </mxGeometry>
        </mxCell>
        <mxCell id="9lTHU1FHQdHA7-ZyIOY5-191" style="shape=tableRow;horizontal=0;startSize=0;swimlaneHead=0;swimlaneBody=0;collapsible=0;dropTarget=0;points=[[0,0.5],[1,0.5]];portConstraint=eastwest;top=0;left=0;right=0;bottom=0;fontFamily=Helvetica;fontSize=15;strokeWidth=2;shadow=1;" vertex="1" parent="9lTHU1FHQdHA7-ZyIOY5-145">
          <mxGeometry y="355" width="229" height="22" as="geometry" />
        </mxCell>
        <mxCell id="9lTHU1FHQdHA7-ZyIOY5-192" value="float" style="shape=partialRectangle;connectable=0;top=0;left=0;bottom=0;right=0;align=left;spacingLeft=2;overflow=hidden;fontSize=15;fontFamily=Helvetica;strokeWidth=2;shadow=1;" vertex="1" parent="9lTHU1FHQdHA7-ZyIOY5-191">
          <mxGeometry width="89" height="22" as="geometry">
            <mxRectangle width="89" height="22" as="alternateBounds" />
          </mxGeometry>
        </mxCell>
        <mxCell id="9lTHU1FHQdHA7-ZyIOY5-193" value="price" style="shape=partialRectangle;connectable=0;top=0;left=0;bottom=0;right=0;align=left;spacingLeft=2;overflow=hidden;fontSize=15;fontFamily=Helvetica;strokeWidth=2;shadow=1;" vertex="1" parent="9lTHU1FHQdHA7-ZyIOY5-191">
          <mxGeometry x="89" width="140" height="22" as="geometry">
            <mxRectangle width="140" height="22" as="alternateBounds" />
          </mxGeometry>
        </mxCell>
        <mxCell id="9lTHU1FHQdHA7-ZyIOY5-194" style="shape=tableRow;horizontal=0;startSize=0;swimlaneHead=0;swimlaneBody=0;collapsible=0;dropTarget=0;points=[[0,0.5],[1,0.5]];portConstraint=eastwest;top=0;left=0;right=0;bottom=0;fontFamily=Helvetica;fontSize=15;strokeWidth=2;shadow=1;" vertex="1" parent="9lTHU1FHQdHA7-ZyIOY5-145">
          <mxGeometry y="377" width="229" height="22" as="geometry" />
        </mxCell>
        <mxCell id="9lTHU1FHQdHA7-ZyIOY5-195" value="float" style="shape=partialRectangle;connectable=0;top=0;left=0;bottom=0;right=0;align=left;spacingLeft=2;overflow=hidden;fontSize=15;fontFamily=Helvetica;strokeWidth=2;shadow=1;" vertex="1" parent="9lTHU1FHQdHA7-ZyIOY5-194">
          <mxGeometry width="89" height="22" as="geometry">
            <mxRectangle width="89" height="22" as="alternateBounds" />
          </mxGeometry>
        </mxCell>
        <mxCell id="9lTHU1FHQdHA7-ZyIOY5-196" value="distance" style="shape=partialRectangle;connectable=0;top=0;left=0;bottom=0;right=0;align=left;spacingLeft=2;overflow=hidden;fontSize=15;fontFamily=Helvetica;strokeWidth=2;shadow=1;" vertex="1" parent="9lTHU1FHQdHA7-ZyIOY5-194">
          <mxGeometry x="89" width="140" height="22" as="geometry">
            <mxRectangle width="140" height="22" as="alternateBounds" />
          </mxGeometry>
        </mxCell>
        <mxCell id="9lTHU1FHQdHA7-ZyIOY5-197" style="shape=tableRow;horizontal=0;startSize=0;swimlaneHead=0;swimlaneBody=0;collapsible=0;dropTarget=0;points=[[0,0.5],[1,0.5]];portConstraint=eastwest;top=0;left=0;right=0;bottom=0;fontFamily=Helvetica;fontSize=15;strokeWidth=2;shadow=1;" vertex="1" parent="9lTHU1FHQdHA7-ZyIOY5-145">
          <mxGeometry y="399" width="229" height="22" as="geometry" />
        </mxCell>
        <mxCell id="9lTHU1FHQdHA7-ZyIOY5-198" value="datetime" style="shape=partialRectangle;connectable=0;top=0;left=0;bottom=0;right=0;align=left;spacingLeft=2;overflow=hidden;fontSize=15;fontFamily=Helvetica;strokeWidth=2;shadow=1;" vertex="1" parent="9lTHU1FHQdHA7-ZyIOY5-197">
          <mxGeometry width="89" height="22" as="geometry">
            <mxRectangle width="89" height="22" as="alternateBounds" />
          </mxGeometry>
        </mxCell>
        <mxCell id="9lTHU1FHQdHA7-ZyIOY5-199" value="delivered_at" style="shape=partialRectangle;connectable=0;top=0;left=0;bottom=0;right=0;align=left;spacingLeft=2;overflow=hidden;fontSize=15;fontFamily=Helvetica;strokeWidth=2;shadow=1;" vertex="1" parent="9lTHU1FHQdHA7-ZyIOY5-197">
          <mxGeometry x="89" width="140" height="22" as="geometry">
            <mxRectangle width="140" height="22" as="alternateBounds" />
          </mxGeometry>
        </mxCell>
        <mxCell id="9lTHU1FHQdHA7-ZyIOY5-200" style="shape=tableRow;horizontal=0;startSize=0;swimlaneHead=0;swimlaneBody=0;collapsible=0;dropTarget=0;points=[[0,0.5],[1,0.5]];portConstraint=eastwest;top=0;left=0;right=0;bottom=0;fontFamily=Helvetica;fontSize=15;strokeWidth=2;shadow=1;" vertex="1" parent="9lTHU1FHQdHA7-ZyIOY5-145">
          <mxGeometry y="421" width="229" height="22" as="geometry" />
        </mxCell>
        <mxCell id="9lTHU1FHQdHA7-ZyIOY5-201" value="datetime" style="shape=partialRectangle;connectable=0;top=0;left=0;bottom=0;right=0;align=left;spacingLeft=2;overflow=hidden;fontSize=15;fontFamily=Helvetica;strokeWidth=2;shadow=1;" vertex="1" parent="9lTHU1FHQdHA7-ZyIOY5-200">
          <mxGeometry width="89" height="22" as="geometry">
            <mxRectangle width="89" height="22" as="alternateBounds" />
          </mxGeometry>
        </mxCell>
        <mxCell id="9lTHU1FHQdHA7-ZyIOY5-202" value="created_at" style="shape=partialRectangle;connectable=0;top=0;left=0;bottom=0;right=0;align=left;spacingLeft=2;overflow=hidden;fontSize=15;fontFamily=Helvetica;strokeWidth=2;shadow=1;" vertex="1" parent="9lTHU1FHQdHA7-ZyIOY5-200">
          <mxGeometry x="89" width="140" height="22" as="geometry">
            <mxRectangle width="140" height="22" as="alternateBounds" />
          </mxGeometry>
        </mxCell>
        <mxCell id="9lTHU1FHQdHA7-ZyIOY5-203" style="shape=tableRow;horizontal=0;startSize=0;swimlaneHead=0;swimlaneBody=0;collapsible=0;dropTarget=0;points=[[0,0.5],[1,0.5]];portConstraint=eastwest;top=0;left=0;right=0;bottom=0;fontFamily=Helvetica;fontSize=15;strokeWidth=2;shadow=1;" vertex="1" parent="9lTHU1FHQdHA7-ZyIOY5-145">
          <mxGeometry y="443" width="229" height="22" as="geometry" />
        </mxCell>
        <mxCell id="9lTHU1FHQdHA7-ZyIOY5-204" value="datetime" style="shape=partialRectangle;connectable=0;top=0;left=0;bottom=0;right=0;align=left;spacingLeft=2;overflow=hidden;fontSize=15;fontFamily=Helvetica;strokeWidth=2;shadow=1;" vertex="1" parent="9lTHU1FHQdHA7-ZyIOY5-203">
          <mxGeometry width="89" height="22" as="geometry">
            <mxRectangle width="89" height="22" as="alternateBounds" />
          </mxGeometry>
        </mxCell>
        <mxCell id="9lTHU1FHQdHA7-ZyIOY5-205" value="updated_at" style="shape=partialRectangle;connectable=0;top=0;left=0;bottom=0;right=0;align=left;spacingLeft=2;overflow=hidden;fontSize=15;fontFamily=Helvetica;strokeWidth=2;shadow=1;" vertex="1" parent="9lTHU1FHQdHA7-ZyIOY5-203">
          <mxGeometry x="89" width="140" height="22" as="geometry">
            <mxRectangle width="140" height="22" as="alternateBounds" />
          </mxGeometry>
        </mxCell>
        <mxCell id="9lTHU1FHQdHA7-ZyIOY5-206" value="PAYMENTS" style="shape=table;startSize=25;container=1;collapsible=0;childLayout=tableLayout;fixedRows=1;rowLines=1;fontStyle=1;align=center;resizeLast=1;fontFamily=Helvetica;fontSize=15;strokeWidth=2;shadow=1;" vertex="1" parent="1">
          <mxGeometry x="569" y="1382" width="181" height="245" as="geometry" />
        </mxCell>
        <mxCell id="9lTHU1FHQdHA7-ZyIOY5-207" style="shape=tableRow;horizontal=0;startSize=0;swimlaneHead=0;swimlaneBody=0;collapsible=0;dropTarget=0;points=[[0,0.5],[1,0.5]];portConstraint=eastwest;top=0;left=0;right=0;bottom=0;fontFamily=Helvetica;fontSize=15;strokeWidth=2;shadow=1;" vertex="1" parent="9lTHU1FHQdHA7-ZyIOY5-206">
          <mxGeometry y="25" width="181" height="22" as="geometry" />
        </mxCell>
        <mxCell id="9lTHU1FHQdHA7-ZyIOY5-208" value="int" style="shape=partialRectangle;connectable=0;top=0;left=0;bottom=0;right=0;align=left;spacingLeft=2;overflow=hidden;fontSize=15;fontFamily=Helvetica;strokeWidth=2;shadow=1;" vertex="1" parent="9lTHU1FHQdHA7-ZyIOY5-207">
          <mxGeometry width="71.00000000000023" height="22" as="geometry">
            <mxRectangle width="71.00000000000023" height="22" as="alternateBounds" />
          </mxGeometry>
        </mxCell>
        <mxCell id="9lTHU1FHQdHA7-ZyIOY5-209" value="id" style="shape=partialRectangle;connectable=0;top=0;left=0;bottom=0;right=0;align=left;spacingLeft=2;overflow=hidden;fontSize=15;fontFamily=Helvetica;strokeWidth=2;shadow=1;" vertex="1" parent="9lTHU1FHQdHA7-ZyIOY5-207">
          <mxGeometry x="71.00000000000023" width="109.99999999999977" height="22" as="geometry">
            <mxRectangle width="109.99999999999977" height="22" as="alternateBounds" />
          </mxGeometry>
        </mxCell>
        <mxCell id="9lTHU1FHQdHA7-ZyIOY5-210" style="shape=tableRow;horizontal=0;startSize=0;swimlaneHead=0;swimlaneBody=0;collapsible=0;dropTarget=0;points=[[0,0.5],[1,0.5]];portConstraint=eastwest;top=0;left=0;right=0;bottom=0;fontFamily=Helvetica;fontSize=15;strokeWidth=2;shadow=1;" vertex="1" parent="9lTHU1FHQdHA7-ZyIOY5-206">
          <mxGeometry y="47" width="181" height="22" as="geometry" />
        </mxCell>
        <mxCell id="9lTHU1FHQdHA7-ZyIOY5-211" value="int" style="shape=partialRectangle;connectable=0;top=0;left=0;bottom=0;right=0;align=left;spacingLeft=2;overflow=hidden;fontSize=15;fontFamily=Helvetica;strokeWidth=2;shadow=1;" vertex="1" parent="9lTHU1FHQdHA7-ZyIOY5-210">
          <mxGeometry width="71.00000000000023" height="22" as="geometry">
            <mxRectangle width="71.00000000000023" height="22" as="alternateBounds" />
          </mxGeometry>
        </mxCell>
        <mxCell id="9lTHU1FHQdHA7-ZyIOY5-212" value="user_id" style="shape=partialRectangle;connectable=0;top=0;left=0;bottom=0;right=0;align=left;spacingLeft=2;overflow=hidden;fontSize=15;fontFamily=Helvetica;strokeWidth=2;shadow=1;" vertex="1" parent="9lTHU1FHQdHA7-ZyIOY5-210">
          <mxGeometry x="71.00000000000023" width="109.99999999999977" height="22" as="geometry">
            <mxRectangle width="109.99999999999977" height="22" as="alternateBounds" />
          </mxGeometry>
        </mxCell>
        <mxCell id="9lTHU1FHQdHA7-ZyIOY5-213" style="shape=tableRow;horizontal=0;startSize=0;swimlaneHead=0;swimlaneBody=0;collapsible=0;dropTarget=0;points=[[0,0.5],[1,0.5]];portConstraint=eastwest;top=0;left=0;right=0;bottom=0;fontFamily=Helvetica;fontSize=15;strokeWidth=2;shadow=1;" vertex="1" parent="9lTHU1FHQdHA7-ZyIOY5-206">
          <mxGeometry y="69" width="181" height="22" as="geometry" />
        </mxCell>
        <mxCell id="9lTHU1FHQdHA7-ZyIOY5-214" value="string" style="shape=partialRectangle;connectable=0;top=0;left=0;bottom=0;right=0;align=left;spacingLeft=2;overflow=hidden;fontSize=15;fontFamily=Helvetica;strokeWidth=2;shadow=1;" vertex="1" parent="9lTHU1FHQdHA7-ZyIOY5-213">
          <mxGeometry width="71.00000000000023" height="22" as="geometry">
            <mxRectangle width="71.00000000000023" height="22" as="alternateBounds" />
          </mxGeometry>
        </mxCell>
        <mxCell id="9lTHU1FHQdHA7-ZyIOY5-215" value="method" style="shape=partialRectangle;connectable=0;top=0;left=0;bottom=0;right=0;align=left;spacingLeft=2;overflow=hidden;fontSize=15;fontFamily=Helvetica;strokeWidth=2;shadow=1;" vertex="1" parent="9lTHU1FHQdHA7-ZyIOY5-213">
          <mxGeometry x="71.00000000000023" width="109.99999999999977" height="22" as="geometry">
            <mxRectangle width="109.99999999999977" height="22" as="alternateBounds" />
          </mxGeometry>
        </mxCell>
        <mxCell id="9lTHU1FHQdHA7-ZyIOY5-216" style="shape=tableRow;horizontal=0;startSize=0;swimlaneHead=0;swimlaneBody=0;collapsible=0;dropTarget=0;points=[[0,0.5],[1,0.5]];portConstraint=eastwest;top=0;left=0;right=0;bottom=0;fontFamily=Helvetica;fontSize=15;strokeWidth=2;shadow=1;" vertex="1" parent="9lTHU1FHQdHA7-ZyIOY5-206">
          <mxGeometry y="91" width="181" height="22" as="geometry" />
        </mxCell>
        <mxCell id="9lTHU1FHQdHA7-ZyIOY5-217" value="string" style="shape=partialRectangle;connectable=0;top=0;left=0;bottom=0;right=0;align=left;spacingLeft=2;overflow=hidden;fontSize=15;fontFamily=Helvetica;strokeWidth=2;shadow=1;" vertex="1" parent="9lTHU1FHQdHA7-ZyIOY5-216">
          <mxGeometry width="71.00000000000023" height="22" as="geometry">
            <mxRectangle width="71.00000000000023" height="22" as="alternateBounds" />
          </mxGeometry>
        </mxCell>
        <mxCell id="9lTHU1FHQdHA7-ZyIOY5-218" value="transaction_id" style="shape=partialRectangle;connectable=0;top=0;left=0;bottom=0;right=0;align=left;spacingLeft=2;overflow=hidden;fontSize=15;fontFamily=Helvetica;strokeWidth=2;shadow=1;" vertex="1" parent="9lTHU1FHQdHA7-ZyIOY5-216">
          <mxGeometry x="71.00000000000023" width="109.99999999999977" height="22" as="geometry">
            <mxRectangle width="109.99999999999977" height="22" as="alternateBounds" />
          </mxGeometry>
        </mxCell>
        <mxCell id="9lTHU1FHQdHA7-ZyIOY5-219" style="shape=tableRow;horizontal=0;startSize=0;swimlaneHead=0;swimlaneBody=0;collapsible=0;dropTarget=0;points=[[0,0.5],[1,0.5]];portConstraint=eastwest;top=0;left=0;right=0;bottom=0;fontFamily=Helvetica;fontSize=15;strokeWidth=2;shadow=1;" vertex="1" parent="9lTHU1FHQdHA7-ZyIOY5-206">
          <mxGeometry y="113" width="181" height="22" as="geometry" />
        </mxCell>
        <mxCell id="9lTHU1FHQdHA7-ZyIOY5-220" value="string" style="shape=partialRectangle;connectable=0;top=0;left=0;bottom=0;right=0;align=left;spacingLeft=2;overflow=hidden;fontSize=15;fontFamily=Helvetica;strokeWidth=2;shadow=1;" vertex="1" parent="9lTHU1FHQdHA7-ZyIOY5-219">
          <mxGeometry width="71.00000000000023" height="22" as="geometry">
            <mxRectangle width="71.00000000000023" height="22" as="alternateBounds" />
          </mxGeometry>
        </mxCell>
        <mxCell id="9lTHU1FHQdHA7-ZyIOY5-221" value="currency" style="shape=partialRectangle;connectable=0;top=0;left=0;bottom=0;right=0;align=left;spacingLeft=2;overflow=hidden;fontSize=15;fontFamily=Helvetica;strokeWidth=2;shadow=1;" vertex="1" parent="9lTHU1FHQdHA7-ZyIOY5-219">
          <mxGeometry x="71.00000000000023" width="109.99999999999977" height="22" as="geometry">
            <mxRectangle width="109.99999999999977" height="22" as="alternateBounds" />
          </mxGeometry>
        </mxCell>
        <mxCell id="9lTHU1FHQdHA7-ZyIOY5-222" style="shape=tableRow;horizontal=0;startSize=0;swimlaneHead=0;swimlaneBody=0;collapsible=0;dropTarget=0;points=[[0,0.5],[1,0.5]];portConstraint=eastwest;top=0;left=0;right=0;bottom=0;fontFamily=Helvetica;fontSize=15;strokeWidth=2;shadow=1;" vertex="1" parent="9lTHU1FHQdHA7-ZyIOY5-206">
          <mxGeometry y="135" width="181" height="22" as="geometry" />
        </mxCell>
        <mxCell id="9lTHU1FHQdHA7-ZyIOY5-223" value="float" style="shape=partialRectangle;connectable=0;top=0;left=0;bottom=0;right=0;align=left;spacingLeft=2;overflow=hidden;fontSize=15;fontFamily=Helvetica;strokeWidth=2;shadow=1;" vertex="1" parent="9lTHU1FHQdHA7-ZyIOY5-222">
          <mxGeometry width="71.00000000000023" height="22" as="geometry">
            <mxRectangle width="71.00000000000023" height="22" as="alternateBounds" />
          </mxGeometry>
        </mxCell>
        <mxCell id="9lTHU1FHQdHA7-ZyIOY5-224" value="amount" style="shape=partialRectangle;connectable=0;top=0;left=0;bottom=0;right=0;align=left;spacingLeft=2;overflow=hidden;fontSize=15;fontFamily=Helvetica;strokeWidth=2;shadow=1;" vertex="1" parent="9lTHU1FHQdHA7-ZyIOY5-222">
          <mxGeometry x="71.00000000000023" width="109.99999999999977" height="22" as="geometry">
            <mxRectangle width="109.99999999999977" height="22" as="alternateBounds" />
          </mxGeometry>
        </mxCell>
        <mxCell id="9lTHU1FHQdHA7-ZyIOY5-225" style="shape=tableRow;horizontal=0;startSize=0;swimlaneHead=0;swimlaneBody=0;collapsible=0;dropTarget=0;points=[[0,0.5],[1,0.5]];portConstraint=eastwest;top=0;left=0;right=0;bottom=0;fontFamily=Helvetica;fontSize=15;strokeWidth=2;shadow=1;" vertex="1" parent="9lTHU1FHQdHA7-ZyIOY5-206">
          <mxGeometry y="157" width="181" height="22" as="geometry" />
        </mxCell>
        <mxCell id="9lTHU1FHQdHA7-ZyIOY5-226" value="string" style="shape=partialRectangle;connectable=0;top=0;left=0;bottom=0;right=0;align=left;spacingLeft=2;overflow=hidden;fontSize=15;fontFamily=Helvetica;strokeWidth=2;shadow=1;" vertex="1" parent="9lTHU1FHQdHA7-ZyIOY5-225">
          <mxGeometry width="71.00000000000023" height="22" as="geometry">
            <mxRectangle width="71.00000000000023" height="22" as="alternateBounds" />
          </mxGeometry>
        </mxCell>
        <mxCell id="9lTHU1FHQdHA7-ZyIOY5-227" value="status" style="shape=partialRectangle;connectable=0;top=0;left=0;bottom=0;right=0;align=left;spacingLeft=2;overflow=hidden;fontSize=15;fontFamily=Helvetica;strokeWidth=2;shadow=1;" vertex="1" parent="9lTHU1FHQdHA7-ZyIOY5-225">
          <mxGeometry x="71.00000000000023" width="109.99999999999977" height="22" as="geometry">
            <mxRectangle width="109.99999999999977" height="22" as="alternateBounds" />
          </mxGeometry>
        </mxCell>
        <mxCell id="9lTHU1FHQdHA7-ZyIOY5-228" style="shape=tableRow;horizontal=0;startSize=0;swimlaneHead=0;swimlaneBody=0;collapsible=0;dropTarget=0;points=[[0,0.5],[1,0.5]];portConstraint=eastwest;top=0;left=0;right=0;bottom=0;fontFamily=Helvetica;fontSize=15;strokeWidth=2;shadow=1;" vertex="1" parent="9lTHU1FHQdHA7-ZyIOY5-206">
          <mxGeometry y="179" width="181" height="22" as="geometry" />
        </mxCell>
        <mxCell id="9lTHU1FHQdHA7-ZyIOY5-229" value="int" style="shape=partialRectangle;connectable=0;top=0;left=0;bottom=0;right=0;align=left;spacingLeft=2;overflow=hidden;fontSize=15;fontFamily=Helvetica;strokeWidth=2;shadow=1;" vertex="1" parent="9lTHU1FHQdHA7-ZyIOY5-228">
          <mxGeometry width="71.00000000000023" height="22" as="geometry">
            <mxRectangle width="71.00000000000023" height="22" as="alternateBounds" />
          </mxGeometry>
        </mxCell>
        <mxCell id="9lTHU1FHQdHA7-ZyIOY5-230" value="parcel_id" style="shape=partialRectangle;connectable=0;top=0;left=0;bottom=0;right=0;align=left;spacingLeft=2;overflow=hidden;fontSize=15;fontFamily=Helvetica;strokeWidth=2;shadow=1;" vertex="1" parent="9lTHU1FHQdHA7-ZyIOY5-228">
          <mxGeometry x="71.00000000000023" width="109.99999999999977" height="22" as="geometry">
            <mxRectangle width="109.99999999999977" height="22" as="alternateBounds" />
          </mxGeometry>
        </mxCell>
        <mxCell id="9lTHU1FHQdHA7-ZyIOY5-231" style="shape=tableRow;horizontal=0;startSize=0;swimlaneHead=0;swimlaneBody=0;collapsible=0;dropTarget=0;points=[[0,0.5],[1,0.5]];portConstraint=eastwest;top=0;left=0;right=0;bottom=0;fontFamily=Helvetica;fontSize=15;strokeWidth=2;shadow=1;" vertex="1" parent="9lTHU1FHQdHA7-ZyIOY5-206">
          <mxGeometry y="201" width="181" height="22" as="geometry" />
        </mxCell>
        <mxCell id="9lTHU1FHQdHA7-ZyIOY5-232" value="datetime" style="shape=partialRectangle;connectable=0;top=0;left=0;bottom=0;right=0;align=left;spacingLeft=2;overflow=hidden;fontSize=15;fontFamily=Helvetica;strokeWidth=2;shadow=1;" vertex="1" parent="9lTHU1FHQdHA7-ZyIOY5-231">
          <mxGeometry width="71.00000000000023" height="22" as="geometry">
            <mxRectangle width="71.00000000000023" height="22" as="alternateBounds" />
          </mxGeometry>
        </mxCell>
        <mxCell id="9lTHU1FHQdHA7-ZyIOY5-233" value="created_at" style="shape=partialRectangle;connectable=0;top=0;left=0;bottom=0;right=0;align=left;spacingLeft=2;overflow=hidden;fontSize=15;fontFamily=Helvetica;strokeWidth=2;shadow=1;" vertex="1" parent="9lTHU1FHQdHA7-ZyIOY5-231">
          <mxGeometry x="71.00000000000023" width="109.99999999999977" height="22" as="geometry">
            <mxRectangle width="109.99999999999977" height="22" as="alternateBounds" />
          </mxGeometry>
        </mxCell>
        <mxCell id="9lTHU1FHQdHA7-ZyIOY5-234" style="shape=tableRow;horizontal=0;startSize=0;swimlaneHead=0;swimlaneBody=0;collapsible=0;dropTarget=0;points=[[0,0.5],[1,0.5]];portConstraint=eastwest;top=0;left=0;right=0;bottom=0;fontFamily=Helvetica;fontSize=15;strokeWidth=2;shadow=1;" vertex="1" parent="9lTHU1FHQdHA7-ZyIOY5-206">
          <mxGeometry y="223" width="181" height="22" as="geometry" />
        </mxCell>
        <mxCell id="9lTHU1FHQdHA7-ZyIOY5-235" value="datetime" style="shape=partialRectangle;connectable=0;top=0;left=0;bottom=0;right=0;align=left;spacingLeft=2;overflow=hidden;fontSize=15;fontFamily=Helvetica;strokeWidth=2;shadow=1;" vertex="1" parent="9lTHU1FHQdHA7-ZyIOY5-234">
          <mxGeometry width="71.00000000000023" height="22" as="geometry">
            <mxRectangle width="71.00000000000023" height="22" as="alternateBounds" />
          </mxGeometry>
        </mxCell>
        <mxCell id="9lTHU1FHQdHA7-ZyIOY5-236" value="updated_at" style="shape=partialRectangle;connectable=0;top=0;left=0;bottom=0;right=0;align=left;spacingLeft=2;overflow=hidden;fontSize=15;fontFamily=Helvetica;strokeWidth=2;shadow=1;" vertex="1" parent="9lTHU1FHQdHA7-ZyIOY5-234">
          <mxGeometry x="71.00000000000023" width="109.99999999999977" height="22" as="geometry">
            <mxRectangle width="109.99999999999977" height="22" as="alternateBounds" />
          </mxGeometry>
        </mxCell>
        <mxCell id="9lTHU1FHQdHA7-ZyIOY5-237" value="WITHDRAWS" style="shape=table;startSize=25;container=1;collapsible=0;childLayout=tableLayout;fixedRows=1;rowLines=1;fontStyle=1;align=center;resizeLast=1;fontFamily=Helvetica;fontSize=15;strokeWidth=2;shadow=1;" vertex="1" parent="1">
          <mxGeometry x="828" y="950" width="182" height="201" as="geometry" />
        </mxCell>
        <mxCell id="9lTHU1FHQdHA7-ZyIOY5-238" style="shape=tableRow;horizontal=0;startSize=0;swimlaneHead=0;swimlaneBody=0;collapsible=0;dropTarget=0;points=[[0,0.5],[1,0.5]];portConstraint=eastwest;top=0;left=0;right=0;bottom=0;fontFamily=Helvetica;fontSize=15;strokeWidth=2;shadow=1;" vertex="1" parent="9lTHU1FHQdHA7-ZyIOY5-237">
          <mxGeometry y="25" width="182" height="22" as="geometry" />
        </mxCell>
        <mxCell id="9lTHU1FHQdHA7-ZyIOY5-239" value="int" style="shape=partialRectangle;connectable=0;top=0;left=0;bottom=0;right=0;align=left;spacingLeft=2;overflow=hidden;fontSize=15;fontFamily=Helvetica;strokeWidth=2;shadow=1;" vertex="1" parent="9lTHU1FHQdHA7-ZyIOY5-238">
          <mxGeometry width="72" height="22" as="geometry">
            <mxRectangle width="72" height="22" as="alternateBounds" />
          </mxGeometry>
        </mxCell>
        <mxCell id="9lTHU1FHQdHA7-ZyIOY5-240" value="id" style="shape=partialRectangle;connectable=0;top=0;left=0;bottom=0;right=0;align=left;spacingLeft=2;overflow=hidden;fontSize=15;fontFamily=Helvetica;strokeWidth=2;shadow=1;" vertex="1" parent="9lTHU1FHQdHA7-ZyIOY5-238">
          <mxGeometry x="72" width="110" height="22" as="geometry">
            <mxRectangle width="110" height="22" as="alternateBounds" />
          </mxGeometry>
        </mxCell>
        <mxCell id="9lTHU1FHQdHA7-ZyIOY5-241" style="shape=tableRow;horizontal=0;startSize=0;swimlaneHead=0;swimlaneBody=0;collapsible=0;dropTarget=0;points=[[0,0.5],[1,0.5]];portConstraint=eastwest;top=0;left=0;right=0;bottom=0;fontFamily=Helvetica;fontSize=15;strokeWidth=2;shadow=1;" vertex="1" parent="9lTHU1FHQdHA7-ZyIOY5-237">
          <mxGeometry y="47" width="182" height="22" as="geometry" />
        </mxCell>
        <mxCell id="9lTHU1FHQdHA7-ZyIOY5-242" value="int" style="shape=partialRectangle;connectable=0;top=0;left=0;bottom=0;right=0;align=left;spacingLeft=2;overflow=hidden;fontSize=15;fontFamily=Helvetica;strokeWidth=2;shadow=1;" vertex="1" parent="9lTHU1FHQdHA7-ZyIOY5-241">
          <mxGeometry width="72" height="22" as="geometry">
            <mxRectangle width="72" height="22" as="alternateBounds" />
          </mxGeometry>
        </mxCell>
        <mxCell id="9lTHU1FHQdHA7-ZyIOY5-243" value="rider_id" style="shape=partialRectangle;connectable=0;top=0;left=0;bottom=0;right=0;align=left;spacingLeft=2;overflow=hidden;fontSize=15;fontFamily=Helvetica;strokeWidth=2;shadow=1;" vertex="1" parent="9lTHU1FHQdHA7-ZyIOY5-241">
          <mxGeometry x="72" width="110" height="22" as="geometry">
            <mxRectangle width="110" height="22" as="alternateBounds" />
          </mxGeometry>
        </mxCell>
        <mxCell id="9lTHU1FHQdHA7-ZyIOY5-244" style="shape=tableRow;horizontal=0;startSize=0;swimlaneHead=0;swimlaneBody=0;collapsible=0;dropTarget=0;points=[[0,0.5],[1,0.5]];portConstraint=eastwest;top=0;left=0;right=0;bottom=0;fontFamily=Helvetica;fontSize=15;strokeWidth=2;shadow=1;" vertex="1" parent="9lTHU1FHQdHA7-ZyIOY5-237">
          <mxGeometry y="69" width="182" height="22" as="geometry" />
        </mxCell>
        <mxCell id="9lTHU1FHQdHA7-ZyIOY5-245" value="string" style="shape=partialRectangle;connectable=0;top=0;left=0;bottom=0;right=0;align=left;spacingLeft=2;overflow=hidden;fontSize=15;fontFamily=Helvetica;strokeWidth=2;shadow=1;" vertex="1" parent="9lTHU1FHQdHA7-ZyIOY5-244">
          <mxGeometry width="72" height="22" as="geometry">
            <mxRectangle width="72" height="22" as="alternateBounds" />
          </mxGeometry>
        </mxCell>
        <mxCell id="9lTHU1FHQdHA7-ZyIOY5-246" value="method" style="shape=partialRectangle;connectable=0;top=0;left=0;bottom=0;right=0;align=left;spacingLeft=2;overflow=hidden;fontSize=15;fontFamily=Helvetica;strokeWidth=2;shadow=1;" vertex="1" parent="9lTHU1FHQdHA7-ZyIOY5-244">
          <mxGeometry x="72" width="110" height="22" as="geometry">
            <mxRectangle width="110" height="22" as="alternateBounds" />
          </mxGeometry>
        </mxCell>
        <mxCell id="9lTHU1FHQdHA7-ZyIOY5-247" style="shape=tableRow;horizontal=0;startSize=0;swimlaneHead=0;swimlaneBody=0;collapsible=0;dropTarget=0;points=[[0,0.5],[1,0.5]];portConstraint=eastwest;top=0;left=0;right=0;bottom=0;fontFamily=Helvetica;fontSize=15;strokeWidth=2;shadow=1;" vertex="1" parent="9lTHU1FHQdHA7-ZyIOY5-237">
          <mxGeometry y="91" width="182" height="22" as="geometry" />
        </mxCell>
        <mxCell id="9lTHU1FHQdHA7-ZyIOY5-248" value="string" style="shape=partialRectangle;connectable=0;top=0;left=0;bottom=0;right=0;align=left;spacingLeft=2;overflow=hidden;fontSize=15;fontFamily=Helvetica;strokeWidth=2;shadow=1;" vertex="1" parent="9lTHU1FHQdHA7-ZyIOY5-247">
          <mxGeometry width="72" height="22" as="geometry">
            <mxRectangle width="72" height="22" as="alternateBounds" />
          </mxGeometry>
        </mxCell>
        <mxCell id="9lTHU1FHQdHA7-ZyIOY5-249" value="transaction_id" style="shape=partialRectangle;connectable=0;top=0;left=0;bottom=0;right=0;align=left;spacingLeft=2;overflow=hidden;fontSize=15;fontFamily=Helvetica;strokeWidth=2;shadow=1;" vertex="1" parent="9lTHU1FHQdHA7-ZyIOY5-247">
          <mxGeometry x="72" width="110" height="22" as="geometry">
            <mxRectangle width="110" height="22" as="alternateBounds" />
          </mxGeometry>
        </mxCell>
        <mxCell id="9lTHU1FHQdHA7-ZyIOY5-250" style="shape=tableRow;horizontal=0;startSize=0;swimlaneHead=0;swimlaneBody=0;collapsible=0;dropTarget=0;points=[[0,0.5],[1,0.5]];portConstraint=eastwest;top=0;left=0;right=0;bottom=0;fontFamily=Helvetica;fontSize=15;strokeWidth=2;shadow=1;" vertex="1" parent="9lTHU1FHQdHA7-ZyIOY5-237">
          <mxGeometry y="113" width="182" height="22" as="geometry" />
        </mxCell>
        <mxCell id="9lTHU1FHQdHA7-ZyIOY5-251" value="float" style="shape=partialRectangle;connectable=0;top=0;left=0;bottom=0;right=0;align=left;spacingLeft=2;overflow=hidden;fontSize=15;fontFamily=Helvetica;strokeWidth=2;shadow=1;" vertex="1" parent="9lTHU1FHQdHA7-ZyIOY5-250">
          <mxGeometry width="72" height="22" as="geometry">
            <mxRectangle width="72" height="22" as="alternateBounds" />
          </mxGeometry>
        </mxCell>
        <mxCell id="9lTHU1FHQdHA7-ZyIOY5-252" value="amount" style="shape=partialRectangle;connectable=0;top=0;left=0;bottom=0;right=0;align=left;spacingLeft=2;overflow=hidden;fontSize=15;fontFamily=Helvetica;strokeWidth=2;shadow=1;" vertex="1" parent="9lTHU1FHQdHA7-ZyIOY5-250">
          <mxGeometry x="72" width="110" height="22" as="geometry">
            <mxRectangle width="110" height="22" as="alternateBounds" />
          </mxGeometry>
        </mxCell>
        <mxCell id="9lTHU1FHQdHA7-ZyIOY5-253" style="shape=tableRow;horizontal=0;startSize=0;swimlaneHead=0;swimlaneBody=0;collapsible=0;dropTarget=0;points=[[0,0.5],[1,0.5]];portConstraint=eastwest;top=0;left=0;right=0;bottom=0;fontFamily=Helvetica;fontSize=15;strokeWidth=2;shadow=1;" vertex="1" parent="9lTHU1FHQdHA7-ZyIOY5-237">
          <mxGeometry y="135" width="182" height="22" as="geometry" />
        </mxCell>
        <mxCell id="9lTHU1FHQdHA7-ZyIOY5-254" value="string" style="shape=partialRectangle;connectable=0;top=0;left=0;bottom=0;right=0;align=left;spacingLeft=2;overflow=hidden;fontSize=15;fontFamily=Helvetica;strokeWidth=2;shadow=1;" vertex="1" parent="9lTHU1FHQdHA7-ZyIOY5-253">
          <mxGeometry width="72" height="22" as="geometry">
            <mxRectangle width="72" height="22" as="alternateBounds" />
          </mxGeometry>
        </mxCell>
        <mxCell id="9lTHU1FHQdHA7-ZyIOY5-255" value="status" style="shape=partialRectangle;connectable=0;top=0;left=0;bottom=0;right=0;align=left;spacingLeft=2;overflow=hidden;fontSize=15;fontFamily=Helvetica;strokeWidth=2;shadow=1;" vertex="1" parent="9lTHU1FHQdHA7-ZyIOY5-253">
          <mxGeometry x="72" width="110" height="22" as="geometry">
            <mxRectangle width="110" height="22" as="alternateBounds" />
          </mxGeometry>
        </mxCell>
        <mxCell id="9lTHU1FHQdHA7-ZyIOY5-256" style="shape=tableRow;horizontal=0;startSize=0;swimlaneHead=0;swimlaneBody=0;collapsible=0;dropTarget=0;points=[[0,0.5],[1,0.5]];portConstraint=eastwest;top=0;left=0;right=0;bottom=0;fontFamily=Helvetica;fontSize=15;strokeWidth=2;shadow=1;" vertex="1" parent="9lTHU1FHQdHA7-ZyIOY5-237">
          <mxGeometry y="157" width="182" height="22" as="geometry" />
        </mxCell>
        <mxCell id="9lTHU1FHQdHA7-ZyIOY5-257" value="datetime" style="shape=partialRectangle;connectable=0;top=0;left=0;bottom=0;right=0;align=left;spacingLeft=2;overflow=hidden;fontSize=15;fontFamily=Helvetica;strokeWidth=2;shadow=1;" vertex="1" parent="9lTHU1FHQdHA7-ZyIOY5-256">
          <mxGeometry width="72" height="22" as="geometry">
            <mxRectangle width="72" height="22" as="alternateBounds" />
          </mxGeometry>
        </mxCell>
        <mxCell id="9lTHU1FHQdHA7-ZyIOY5-258" value="created_at" style="shape=partialRectangle;connectable=0;top=0;left=0;bottom=0;right=0;align=left;spacingLeft=2;overflow=hidden;fontSize=15;fontFamily=Helvetica;strokeWidth=2;shadow=1;" vertex="1" parent="9lTHU1FHQdHA7-ZyIOY5-256">
          <mxGeometry x="72" width="110" height="22" as="geometry">
            <mxRectangle width="110" height="22" as="alternateBounds" />
          </mxGeometry>
        </mxCell>
        <mxCell id="9lTHU1FHQdHA7-ZyIOY5-259" style="shape=tableRow;horizontal=0;startSize=0;swimlaneHead=0;swimlaneBody=0;collapsible=0;dropTarget=0;points=[[0,0.5],[1,0.5]];portConstraint=eastwest;top=0;left=0;right=0;bottom=0;fontFamily=Helvetica;fontSize=15;strokeWidth=2;shadow=1;" vertex="1" parent="9lTHU1FHQdHA7-ZyIOY5-237">
          <mxGeometry y="179" width="182" height="22" as="geometry" />
        </mxCell>
        <mxCell id="9lTHU1FHQdHA7-ZyIOY5-260" value="datetime" style="shape=partialRectangle;connectable=0;top=0;left=0;bottom=0;right=0;align=left;spacingLeft=2;overflow=hidden;fontSize=15;fontFamily=Helvetica;strokeWidth=2;shadow=1;" vertex="1" parent="9lTHU1FHQdHA7-ZyIOY5-259">
          <mxGeometry width="72" height="22" as="geometry">
            <mxRectangle width="72" height="22" as="alternateBounds" />
          </mxGeometry>
        </mxCell>
        <mxCell id="9lTHU1FHQdHA7-ZyIOY5-261" value="updated_at" style="shape=partialRectangle;connectable=0;top=0;left=0;bottom=0;right=0;align=left;spacingLeft=2;overflow=hidden;fontSize=15;fontFamily=Helvetica;strokeWidth=2;shadow=1;" vertex="1" parent="9lTHU1FHQdHA7-ZyIOY5-259">
          <mxGeometry x="72" width="110" height="22" as="geometry">
            <mxRectangle width="110" height="22" as="alternateBounds" />
          </mxGeometry>
        </mxCell>
        <mxCell id="9lTHU1FHQdHA7-ZyIOY5-262" value="REVIEWS" style="shape=table;startSize=25;container=1;collapsible=0;childLayout=tableLayout;fixedRows=1;rowLines=1;fontStyle=1;align=center;resizeLast=1;fontFamily=Helvetica;fontSize=15;strokeWidth=2;shadow=1;" vertex="1" parent="1">
          <mxGeometry x="1078" y="950" width="172" height="201" as="geometry" />
        </mxCell>
        <mxCell id="9lTHU1FHQdHA7-ZyIOY5-263" style="shape=tableRow;horizontal=0;startSize=0;swimlaneHead=0;swimlaneBody=0;collapsible=0;dropTarget=0;points=[[0,0.5],[1,0.5]];portConstraint=eastwest;top=0;left=0;right=0;bottom=0;fontFamily=Helvetica;fontSize=15;strokeWidth=2;shadow=1;" vertex="1" parent="9lTHU1FHQdHA7-ZyIOY5-262">
          <mxGeometry y="25" width="172" height="22" as="geometry" />
        </mxCell>
        <mxCell id="9lTHU1FHQdHA7-ZyIOY5-264" value="int" style="shape=partialRectangle;connectable=0;top=0;left=0;bottom=0;right=0;align=left;spacingLeft=2;overflow=hidden;fontSize=15;fontFamily=Helvetica;strokeWidth=2;shadow=1;" vertex="1" parent="9lTHU1FHQdHA7-ZyIOY5-263">
          <mxGeometry width="82" height="22" as="geometry">
            <mxRectangle width="82" height="22" as="alternateBounds" />
          </mxGeometry>
        </mxCell>
        <mxCell id="9lTHU1FHQdHA7-ZyIOY5-265" value="id" style="shape=partialRectangle;connectable=0;top=0;left=0;bottom=0;right=0;align=left;spacingLeft=2;overflow=hidden;fontSize=15;fontFamily=Helvetica;strokeWidth=2;shadow=1;" vertex="1" parent="9lTHU1FHQdHA7-ZyIOY5-263">
          <mxGeometry x="82" width="90" height="22" as="geometry">
            <mxRectangle width="90" height="22" as="alternateBounds" />
          </mxGeometry>
        </mxCell>
        <mxCell id="9lTHU1FHQdHA7-ZyIOY5-266" style="shape=tableRow;horizontal=0;startSize=0;swimlaneHead=0;swimlaneBody=0;collapsible=0;dropTarget=0;points=[[0,0.5],[1,0.5]];portConstraint=eastwest;top=0;left=0;right=0;bottom=0;fontFamily=Helvetica;fontSize=15;strokeWidth=2;shadow=1;" vertex="1" parent="9lTHU1FHQdHA7-ZyIOY5-262">
          <mxGeometry y="47" width="172" height="22" as="geometry" />
        </mxCell>
        <mxCell id="9lTHU1FHQdHA7-ZyIOY5-267" value="int" style="shape=partialRectangle;connectable=0;top=0;left=0;bottom=0;right=0;align=left;spacingLeft=2;overflow=hidden;fontSize=15;fontFamily=Helvetica;strokeWidth=2;shadow=1;" vertex="1" parent="9lTHU1FHQdHA7-ZyIOY5-266">
          <mxGeometry width="82" height="22" as="geometry">
            <mxRectangle width="82" height="22" as="alternateBounds" />
          </mxGeometry>
        </mxCell>
        <mxCell id="9lTHU1FHQdHA7-ZyIOY5-268" value="rider_id" style="shape=partialRectangle;connectable=0;top=0;left=0;bottom=0;right=0;align=left;spacingLeft=2;overflow=hidden;fontSize=15;fontFamily=Helvetica;strokeWidth=2;shadow=1;" vertex="1" parent="9lTHU1FHQdHA7-ZyIOY5-266">
          <mxGeometry x="82" width="90" height="22" as="geometry">
            <mxRectangle width="90" height="22" as="alternateBounds" />
          </mxGeometry>
        </mxCell>
        <mxCell id="9lTHU1FHQdHA7-ZyIOY5-269" style="shape=tableRow;horizontal=0;startSize=0;swimlaneHead=0;swimlaneBody=0;collapsible=0;dropTarget=0;points=[[0,0.5],[1,0.5]];portConstraint=eastwest;top=0;left=0;right=0;bottom=0;fontFamily=Helvetica;fontSize=15;strokeWidth=2;shadow=1;" vertex="1" parent="9lTHU1FHQdHA7-ZyIOY5-262">
          <mxGeometry y="69" width="172" height="22" as="geometry" />
        </mxCell>
        <mxCell id="9lTHU1FHQdHA7-ZyIOY5-270" value="int" style="shape=partialRectangle;connectable=0;top=0;left=0;bottom=0;right=0;align=left;spacingLeft=2;overflow=hidden;fontSize=15;fontFamily=Helvetica;strokeWidth=2;shadow=1;" vertex="1" parent="9lTHU1FHQdHA7-ZyIOY5-269">
          <mxGeometry width="82" height="22" as="geometry">
            <mxRectangle width="82" height="22" as="alternateBounds" />
          </mxGeometry>
        </mxCell>
        <mxCell id="9lTHU1FHQdHA7-ZyIOY5-271" value="vendor_id" style="shape=partialRectangle;connectable=0;top=0;left=0;bottom=0;right=0;align=left;spacingLeft=2;overflow=hidden;fontSize=15;fontFamily=Helvetica;strokeWidth=2;shadow=1;" vertex="1" parent="9lTHU1FHQdHA7-ZyIOY5-269">
          <mxGeometry x="82" width="90" height="22" as="geometry">
            <mxRectangle width="90" height="22" as="alternateBounds" />
          </mxGeometry>
        </mxCell>
        <mxCell id="9lTHU1FHQdHA7-ZyIOY5-272" style="shape=tableRow;horizontal=0;startSize=0;swimlaneHead=0;swimlaneBody=0;collapsible=0;dropTarget=0;points=[[0,0.5],[1,0.5]];portConstraint=eastwest;top=0;left=0;right=0;bottom=0;fontFamily=Helvetica;fontSize=15;strokeWidth=2;shadow=1;" vertex="1" parent="9lTHU1FHQdHA7-ZyIOY5-262">
          <mxGeometry y="91" width="172" height="22" as="geometry" />
        </mxCell>
        <mxCell id="9lTHU1FHQdHA7-ZyIOY5-273" value="string" style="shape=partialRectangle;connectable=0;top=0;left=0;bottom=0;right=0;align=left;spacingLeft=2;overflow=hidden;fontSize=15;fontFamily=Helvetica;strokeWidth=2;shadow=1;" vertex="1" parent="9lTHU1FHQdHA7-ZyIOY5-272">
          <mxGeometry width="82" height="22" as="geometry">
            <mxRectangle width="82" height="22" as="alternateBounds" />
          </mxGeometry>
        </mxCell>
        <mxCell id="9lTHU1FHQdHA7-ZyIOY5-274" value="feedback" style="shape=partialRectangle;connectable=0;top=0;left=0;bottom=0;right=0;align=left;spacingLeft=2;overflow=hidden;fontSize=15;fontFamily=Helvetica;strokeWidth=2;shadow=1;" vertex="1" parent="9lTHU1FHQdHA7-ZyIOY5-272">
          <mxGeometry x="82" width="90" height="22" as="geometry">
            <mxRectangle width="90" height="22" as="alternateBounds" />
          </mxGeometry>
        </mxCell>
        <mxCell id="9lTHU1FHQdHA7-ZyIOY5-275" style="shape=tableRow;horizontal=0;startSize=0;swimlaneHead=0;swimlaneBody=0;collapsible=0;dropTarget=0;points=[[0,0.5],[1,0.5]];portConstraint=eastwest;top=0;left=0;right=0;bottom=0;fontFamily=Helvetica;fontSize=15;strokeWidth=2;shadow=1;" vertex="1" parent="9lTHU1FHQdHA7-ZyIOY5-262">
          <mxGeometry y="113" width="172" height="22" as="geometry" />
        </mxCell>
        <mxCell id="9lTHU1FHQdHA7-ZyIOY5-276" value="int" style="shape=partialRectangle;connectable=0;top=0;left=0;bottom=0;right=0;align=left;spacingLeft=2;overflow=hidden;fontSize=15;fontFamily=Helvetica;strokeWidth=2;shadow=1;" vertex="1" parent="9lTHU1FHQdHA7-ZyIOY5-275">
          <mxGeometry width="82" height="22" as="geometry">
            <mxRectangle width="82" height="22" as="alternateBounds" />
          </mxGeometry>
        </mxCell>
        <mxCell id="9lTHU1FHQdHA7-ZyIOY5-277" value="star" style="shape=partialRectangle;connectable=0;top=0;left=0;bottom=0;right=0;align=left;spacingLeft=2;overflow=hidden;fontSize=15;fontFamily=Helvetica;strokeWidth=2;shadow=1;" vertex="1" parent="9lTHU1FHQdHA7-ZyIOY5-275">
          <mxGeometry x="82" width="90" height="22" as="geometry">
            <mxRectangle width="90" height="22" as="alternateBounds" />
          </mxGeometry>
        </mxCell>
        <mxCell id="9lTHU1FHQdHA7-ZyIOY5-278" style="shape=tableRow;horizontal=0;startSize=0;swimlaneHead=0;swimlaneBody=0;collapsible=0;dropTarget=0;points=[[0,0.5],[1,0.5]];portConstraint=eastwest;top=0;left=0;right=0;bottom=0;fontFamily=Helvetica;fontSize=15;strokeWidth=2;shadow=1;" vertex="1" parent="9lTHU1FHQdHA7-ZyIOY5-262">
          <mxGeometry y="135" width="172" height="22" as="geometry" />
        </mxCell>
        <mxCell id="9lTHU1FHQdHA7-ZyIOY5-279" value="datetime" style="shape=partialRectangle;connectable=0;top=0;left=0;bottom=0;right=0;align=left;spacingLeft=2;overflow=hidden;fontSize=15;fontFamily=Helvetica;strokeWidth=2;shadow=1;" vertex="1" parent="9lTHU1FHQdHA7-ZyIOY5-278">
          <mxGeometry width="82" height="22" as="geometry">
            <mxRectangle width="82" height="22" as="alternateBounds" />
          </mxGeometry>
        </mxCell>
        <mxCell id="9lTHU1FHQdHA7-ZyIOY5-280" value="reviewed_at" style="shape=partialRectangle;connectable=0;top=0;left=0;bottom=0;right=0;align=left;spacingLeft=2;overflow=hidden;fontSize=15;fontFamily=Helvetica;strokeWidth=2;shadow=1;" vertex="1" parent="9lTHU1FHQdHA7-ZyIOY5-278">
          <mxGeometry x="82" width="90" height="22" as="geometry">
            <mxRectangle width="90" height="22" as="alternateBounds" />
          </mxGeometry>
        </mxCell>
        <mxCell id="9lTHU1FHQdHA7-ZyIOY5-281" style="shape=tableRow;horizontal=0;startSize=0;swimlaneHead=0;swimlaneBody=0;collapsible=0;dropTarget=0;points=[[0,0.5],[1,0.5]];portConstraint=eastwest;top=0;left=0;right=0;bottom=0;fontFamily=Helvetica;fontSize=15;strokeWidth=2;shadow=1;" vertex="1" parent="9lTHU1FHQdHA7-ZyIOY5-262">
          <mxGeometry y="157" width="172" height="22" as="geometry" />
        </mxCell>
        <mxCell id="9lTHU1FHQdHA7-ZyIOY5-282" value="datetime" style="shape=partialRectangle;connectable=0;top=0;left=0;bottom=0;right=0;align=left;spacingLeft=2;overflow=hidden;fontSize=15;fontFamily=Helvetica;strokeWidth=2;shadow=1;" vertex="1" parent="9lTHU1FHQdHA7-ZyIOY5-281">
          <mxGeometry width="82" height="22" as="geometry">
            <mxRectangle width="82" height="22" as="alternateBounds" />
          </mxGeometry>
        </mxCell>
        <mxCell id="9lTHU1FHQdHA7-ZyIOY5-283" value="created_at" style="shape=partialRectangle;connectable=0;top=0;left=0;bottom=0;right=0;align=left;spacingLeft=2;overflow=hidden;fontSize=15;fontFamily=Helvetica;strokeWidth=2;shadow=1;" vertex="1" parent="9lTHU1FHQdHA7-ZyIOY5-281">
          <mxGeometry x="82" width="90" height="22" as="geometry">
            <mxRectangle width="90" height="22" as="alternateBounds" />
          </mxGeometry>
        </mxCell>
        <mxCell id="9lTHU1FHQdHA7-ZyIOY5-284" style="shape=tableRow;horizontal=0;startSize=0;swimlaneHead=0;swimlaneBody=0;collapsible=0;dropTarget=0;points=[[0,0.5],[1,0.5]];portConstraint=eastwest;top=0;left=0;right=0;bottom=0;fontFamily=Helvetica;fontSize=15;strokeWidth=2;shadow=1;" vertex="1" parent="9lTHU1FHQdHA7-ZyIOY5-262">
          <mxGeometry y="179" width="172" height="22" as="geometry" />
        </mxCell>
        <mxCell id="9lTHU1FHQdHA7-ZyIOY5-285" value="datetime" style="shape=partialRectangle;connectable=0;top=0;left=0;bottom=0;right=0;align=left;spacingLeft=2;overflow=hidden;fontSize=15;fontFamily=Helvetica;strokeWidth=2;shadow=1;" vertex="1" parent="9lTHU1FHQdHA7-ZyIOY5-284">
          <mxGeometry width="82" height="22" as="geometry">
            <mxRectangle width="82" height="22" as="alternateBounds" />
          </mxGeometry>
        </mxCell>
        <mxCell id="9lTHU1FHQdHA7-ZyIOY5-286" value="updated_at" style="shape=partialRectangle;connectable=0;top=0;left=0;bottom=0;right=0;align=left;spacingLeft=2;overflow=hidden;fontSize=15;fontFamily=Helvetica;strokeWidth=2;shadow=1;" vertex="1" parent="9lTHU1FHQdHA7-ZyIOY5-284">
          <mxGeometry x="82" width="90" height="22" as="geometry">
            <mxRectangle width="90" height="22" as="alternateBounds" />
          </mxGeometry>
        </mxCell>
        <mxCell id="9lTHU1FHQdHA7-ZyIOY5-287" value="PRICING" style="shape=table;startSize=25;container=1;collapsible=0;childLayout=tableLayout;fixedRows=1;rowLines=1;fontStyle=1;align=center;resizeLast=1;fontFamily=Helvetica;fontSize=15;strokeWidth=2;shadow=1;" vertex="1" parent="1">
          <mxGeometry x="78" y="818" width="190" height="201" as="geometry" />
        </mxCell>
        <mxCell id="9lTHU1FHQdHA7-ZyIOY5-288" style="shape=tableRow;horizontal=0;startSize=0;swimlaneHead=0;swimlaneBody=0;collapsible=0;dropTarget=0;points=[[0,0.5],[1,0.5]];portConstraint=eastwest;top=0;left=0;right=0;bottom=0;fontFamily=Helvetica;fontSize=15;strokeWidth=2;shadow=1;" vertex="1" parent="9lTHU1FHQdHA7-ZyIOY5-287">
          <mxGeometry y="25" width="190" height="22" as="geometry" />
        </mxCell>
        <mxCell id="9lTHU1FHQdHA7-ZyIOY5-289" value="int" style="shape=partialRectangle;connectable=0;top=0;left=0;bottom=0;right=0;align=left;spacingLeft=2;overflow=hidden;fontSize=15;fontFamily=Helvetica;strokeWidth=2;shadow=1;" vertex="1" parent="9lTHU1FHQdHA7-ZyIOY5-288">
          <mxGeometry width="80" height="22" as="geometry">
            <mxRectangle width="80" height="22" as="alternateBounds" />
          </mxGeometry>
        </mxCell>
        <mxCell id="9lTHU1FHQdHA7-ZyIOY5-290" value="id" style="shape=partialRectangle;connectable=0;top=0;left=0;bottom=0;right=0;align=left;spacingLeft=2;overflow=hidden;fontSize=15;fontFamily=Helvetica;strokeWidth=2;shadow=1;" vertex="1" parent="9lTHU1FHQdHA7-ZyIOY5-288">
          <mxGeometry x="80" width="110" height="22" as="geometry">
            <mxRectangle width="110" height="22" as="alternateBounds" />
          </mxGeometry>
        </mxCell>
        <mxCell id="9lTHU1FHQdHA7-ZyIOY5-291" style="shape=tableRow;horizontal=0;startSize=0;swimlaneHead=0;swimlaneBody=0;collapsible=0;dropTarget=0;points=[[0,0.5],[1,0.5]];portConstraint=eastwest;top=0;left=0;right=0;bottom=0;fontFamily=Helvetica;fontSize=15;strokeWidth=2;shadow=1;" vertex="1" parent="9lTHU1FHQdHA7-ZyIOY5-287">
          <mxGeometry y="47" width="190" height="22" as="geometry" />
        </mxCell>
        <mxCell id="9lTHU1FHQdHA7-ZyIOY5-292" value="float" style="shape=partialRectangle;connectable=0;top=0;left=0;bottom=0;right=0;align=left;spacingLeft=2;overflow=hidden;fontSize=15;fontFamily=Helvetica;strokeWidth=2;shadow=1;" vertex="1" parent="9lTHU1FHQdHA7-ZyIOY5-291">
          <mxGeometry width="80" height="22" as="geometry">
            <mxRectangle width="80" height="22" as="alternateBounds" />
          </mxGeometry>
        </mxCell>
        <mxCell id="9lTHU1FHQdHA7-ZyIOY5-293" value="min_weight_gm" style="shape=partialRectangle;connectable=0;top=0;left=0;bottom=0;right=0;align=left;spacingLeft=2;overflow=hidden;fontSize=15;fontFamily=Helvetica;strokeWidth=2;shadow=1;" vertex="1" parent="9lTHU1FHQdHA7-ZyIOY5-291">
          <mxGeometry x="80" width="110" height="22" as="geometry">
            <mxRectangle width="110" height="22" as="alternateBounds" />
          </mxGeometry>
        </mxCell>
        <mxCell id="9lTHU1FHQdHA7-ZyIOY5-294" style="shape=tableRow;horizontal=0;startSize=0;swimlaneHead=0;swimlaneBody=0;collapsible=0;dropTarget=0;points=[[0,0.5],[1,0.5]];portConstraint=eastwest;top=0;left=0;right=0;bottom=0;fontFamily=Helvetica;fontSize=15;strokeWidth=2;shadow=1;" vertex="1" parent="9lTHU1FHQdHA7-ZyIOY5-287">
          <mxGeometry y="69" width="190" height="22" as="geometry" />
        </mxCell>
        <mxCell id="9lTHU1FHQdHA7-ZyIOY5-295" value="float" style="shape=partialRectangle;connectable=0;top=0;left=0;bottom=0;right=0;align=left;spacingLeft=2;overflow=hidden;fontSize=15;fontFamily=Helvetica;strokeWidth=2;shadow=1;" vertex="1" parent="9lTHU1FHQdHA7-ZyIOY5-294">
          <mxGeometry width="80" height="22" as="geometry">
            <mxRectangle width="80" height="22" as="alternateBounds" />
          </mxGeometry>
        </mxCell>
        <mxCell id="9lTHU1FHQdHA7-ZyIOY5-296" value="max_weight_gm" style="shape=partialRectangle;connectable=0;top=0;left=0;bottom=0;right=0;align=left;spacingLeft=2;overflow=hidden;fontSize=15;fontFamily=Helvetica;strokeWidth=2;shadow=1;" vertex="1" parent="9lTHU1FHQdHA7-ZyIOY5-294">
          <mxGeometry x="80" width="110" height="22" as="geometry">
            <mxRectangle width="110" height="22" as="alternateBounds" />
          </mxGeometry>
        </mxCell>
        <mxCell id="9lTHU1FHQdHA7-ZyIOY5-297" style="shape=tableRow;horizontal=0;startSize=0;swimlaneHead=0;swimlaneBody=0;collapsible=0;dropTarget=0;points=[[0,0.5],[1,0.5]];portConstraint=eastwest;top=0;left=0;right=0;bottom=0;fontFamily=Helvetica;fontSize=15;strokeWidth=2;shadow=1;" vertex="1" parent="9lTHU1FHQdHA7-ZyIOY5-287">
          <mxGeometry y="91" width="190" height="22" as="geometry" />
        </mxCell>
        <mxCell id="9lTHU1FHQdHA7-ZyIOY5-298" value="float" style="shape=partialRectangle;connectable=0;top=0;left=0;bottom=0;right=0;align=left;spacingLeft=2;overflow=hidden;fontSize=15;fontFamily=Helvetica;strokeWidth=2;shadow=1;" vertex="1" parent="9lTHU1FHQdHA7-ZyIOY5-297">
          <mxGeometry width="80" height="22" as="geometry">
            <mxRectangle width="80" height="22" as="alternateBounds" />
          </mxGeometry>
        </mxCell>
        <mxCell id="9lTHU1FHQdHA7-ZyIOY5-299" value="min_size_sqm" style="shape=partialRectangle;connectable=0;top=0;left=0;bottom=0;right=0;align=left;spacingLeft=2;overflow=hidden;fontSize=15;fontFamily=Helvetica;strokeWidth=2;shadow=1;" vertex="1" parent="9lTHU1FHQdHA7-ZyIOY5-297">
          <mxGeometry x="80" width="110" height="22" as="geometry">
            <mxRectangle width="110" height="22" as="alternateBounds" />
          </mxGeometry>
        </mxCell>
        <mxCell id="9lTHU1FHQdHA7-ZyIOY5-300" style="shape=tableRow;horizontal=0;startSize=0;swimlaneHead=0;swimlaneBody=0;collapsible=0;dropTarget=0;points=[[0,0.5],[1,0.5]];portConstraint=eastwest;top=0;left=0;right=0;bottom=0;fontFamily=Helvetica;fontSize=15;strokeWidth=2;shadow=1;" vertex="1" parent="9lTHU1FHQdHA7-ZyIOY5-287">
          <mxGeometry y="113" width="190" height="22" as="geometry" />
        </mxCell>
        <mxCell id="9lTHU1FHQdHA7-ZyIOY5-301" value="float" style="shape=partialRectangle;connectable=0;top=0;left=0;bottom=0;right=0;align=left;spacingLeft=2;overflow=hidden;fontSize=15;fontFamily=Helvetica;strokeWidth=2;shadow=1;" vertex="1" parent="9lTHU1FHQdHA7-ZyIOY5-300">
          <mxGeometry width="80" height="22" as="geometry">
            <mxRectangle width="80" height="22" as="alternateBounds" />
          </mxGeometry>
        </mxCell>
        <mxCell id="9lTHU1FHQdHA7-ZyIOY5-302" value="max_size_sqm" style="shape=partialRectangle;connectable=0;top=0;left=0;bottom=0;right=0;align=left;spacingLeft=2;overflow=hidden;fontSize=15;fontFamily=Helvetica;strokeWidth=2;shadow=1;" vertex="1" parent="9lTHU1FHQdHA7-ZyIOY5-300">
          <mxGeometry x="80" width="110" height="22" as="geometry">
            <mxRectangle width="110" height="22" as="alternateBounds" />
          </mxGeometry>
        </mxCell>
        <mxCell id="9lTHU1FHQdHA7-ZyIOY5-303" style="shape=tableRow;horizontal=0;startSize=0;swimlaneHead=0;swimlaneBody=0;collapsible=0;dropTarget=0;points=[[0,0.5],[1,0.5]];portConstraint=eastwest;top=0;left=0;right=0;bottom=0;fontFamily=Helvetica;fontSize=15;strokeWidth=2;shadow=1;" vertex="1" parent="9lTHU1FHQdHA7-ZyIOY5-287">
          <mxGeometry y="135" width="190" height="22" as="geometry" />
        </mxCell>
        <mxCell id="9lTHU1FHQdHA7-ZyIOY5-304" value="float" style="shape=partialRectangle;connectable=0;top=0;left=0;bottom=0;right=0;align=left;spacingLeft=2;overflow=hidden;fontSize=15;fontFamily=Helvetica;strokeWidth=2;shadow=1;" vertex="1" parent="9lTHU1FHQdHA7-ZyIOY5-303">
          <mxGeometry width="80" height="22" as="geometry">
            <mxRectangle width="80" height="22" as="alternateBounds" />
          </mxGeometry>
        </mxCell>
        <mxCell id="9lTHU1FHQdHA7-ZyIOY5-305" value="price" style="shape=partialRectangle;connectable=0;top=0;left=0;bottom=0;right=0;align=left;spacingLeft=2;overflow=hidden;fontSize=15;fontFamily=Helvetica;strokeWidth=2;shadow=1;" vertex="1" parent="9lTHU1FHQdHA7-ZyIOY5-303">
          <mxGeometry x="80" width="110" height="22" as="geometry">
            <mxRectangle width="110" height="22" as="alternateBounds" />
          </mxGeometry>
        </mxCell>
        <mxCell id="9lTHU1FHQdHA7-ZyIOY5-306" style="shape=tableRow;horizontal=0;startSize=0;swimlaneHead=0;swimlaneBody=0;collapsible=0;dropTarget=0;points=[[0,0.5],[1,0.5]];portConstraint=eastwest;top=0;left=0;right=0;bottom=0;fontFamily=Helvetica;fontSize=15;strokeWidth=2;shadow=1;" vertex="1" parent="9lTHU1FHQdHA7-ZyIOY5-287">
          <mxGeometry y="157" width="190" height="22" as="geometry" />
        </mxCell>
        <mxCell id="9lTHU1FHQdHA7-ZyIOY5-307" value="datetime" style="shape=partialRectangle;connectable=0;top=0;left=0;bottom=0;right=0;align=left;spacingLeft=2;overflow=hidden;fontSize=15;fontFamily=Helvetica;strokeWidth=2;shadow=1;" vertex="1" parent="9lTHU1FHQdHA7-ZyIOY5-306">
          <mxGeometry width="80" height="22" as="geometry">
            <mxRectangle width="80" height="22" as="alternateBounds" />
          </mxGeometry>
        </mxCell>
        <mxCell id="9lTHU1FHQdHA7-ZyIOY5-308" value="created_at" style="shape=partialRectangle;connectable=0;top=0;left=0;bottom=0;right=0;align=left;spacingLeft=2;overflow=hidden;fontSize=15;fontFamily=Helvetica;strokeWidth=2;shadow=1;" vertex="1" parent="9lTHU1FHQdHA7-ZyIOY5-306">
          <mxGeometry x="80" width="110" height="22" as="geometry">
            <mxRectangle width="110" height="22" as="alternateBounds" />
          </mxGeometry>
        </mxCell>
        <mxCell id="9lTHU1FHQdHA7-ZyIOY5-309" style="shape=tableRow;horizontal=0;startSize=0;swimlaneHead=0;swimlaneBody=0;collapsible=0;dropTarget=0;points=[[0,0.5],[1,0.5]];portConstraint=eastwest;top=0;left=0;right=0;bottom=0;fontFamily=Helvetica;fontSize=15;strokeWidth=2;shadow=1;" vertex="1" parent="9lTHU1FHQdHA7-ZyIOY5-287">
          <mxGeometry y="179" width="190" height="22" as="geometry" />
        </mxCell>
        <mxCell id="9lTHU1FHQdHA7-ZyIOY5-310" value="datetime" style="shape=partialRectangle;connectable=0;top=0;left=0;bottom=0;right=0;align=left;spacingLeft=2;overflow=hidden;fontSize=15;fontFamily=Helvetica;strokeWidth=2;shadow=1;" vertex="1" parent="9lTHU1FHQdHA7-ZyIOY5-309">
          <mxGeometry width="80" height="22" as="geometry">
            <mxRectangle width="80" height="22" as="alternateBounds" />
          </mxGeometry>
        </mxCell>
        <mxCell id="9lTHU1FHQdHA7-ZyIOY5-311" value="updated_at" style="shape=partialRectangle;connectable=0;top=0;left=0;bottom=0;right=0;align=left;spacingLeft=2;overflow=hidden;fontSize=15;fontFamily=Helvetica;strokeWidth=2;shadow=1;" vertex="1" parent="9lTHU1FHQdHA7-ZyIOY5-309">
          <mxGeometry x="80" width="110" height="22" as="geometry">
            <mxRectangle width="110" height="22" as="alternateBounds" />
          </mxGeometry>
        </mxCell>
        <mxCell id="9lTHU1FHQdHA7-ZyIOY5-312" value="has" style="curved=1;startArrow=ERmandOne;startSize=10;;endArrow=ERmany;endSize=10;;exitX=-0.00017442890242034314;exitY=0.6036825162201751;entryX=0.33819195869720164;entryY=0;rounded=0;fontFamily=Helvetica;fontSize=15;strokeWidth=2;shadow=1;" edge="1" parent="1" source="9lTHU1FHQdHA7-ZyIOY5-1" target="9lTHU1FHQdHA7-ZyIOY5-86">
          <mxGeometry relative="1" as="geometry">
            <Array as="points">
              <mxPoint x="265" y="336" />
            </Array>
          </mxGeometry>
        </mxCell>
        <mxCell id="9lTHU1FHQdHA7-ZyIOY5-313" value="has" style="curved=1;startArrow=ERmandOne;startSize=10;;endArrow=ERmany;endSize=10;;exitX=0.6648519900723685;exitY=1;entryX=0.6112133871785939;entryY=0;rounded=0;fontFamily=Helvetica;fontSize=15;strokeWidth=2;shadow=1;" edge="1" parent="1" source="9lTHU1FHQdHA7-ZyIOY5-35" target="9lTHU1FHQdHA7-ZyIOY5-86">
          <mxGeometry relative="1" as="geometry">
            <Array as="points">
              <mxPoint x="387" y="336" />
            </Array>
          </mxGeometry>
        </mxCell>
        <mxCell id="9lTHU1FHQdHA7-ZyIOY5-314" value="has" style="curved=1;startArrow=ERmandOne;startSize=10;;endArrow=ERmany;endSize=10;;exitX=0.002696935681329257;exitY=0.7787432213108602;entryX=0.3945736947121682;entryY=0;rounded=0;fontFamily=Helvetica;fontSize=15;strokeWidth=2;shadow=1;" edge="1" parent="1" source="9lTHU1FHQdHA7-ZyIOY5-35" target="9lTHU1FHQdHA7-ZyIOY5-70">
          <mxGeometry relative="1" as="geometry">
            <Array as="points">
              <mxPoint x="44" y="336" />
            </Array>
          </mxGeometry>
        </mxCell>
        <mxCell id="9lTHU1FHQdHA7-ZyIOY5-315" value="has" style="curved=1;startArrow=ERmandOne;startSize=10;;endArrow=ERmany;endSize=10;;exitX=0.6384461383935892;exitY=1;entryX=0.6092724680781245;entryY=0;rounded=0;fontFamily=Helvetica;fontSize=15;strokeWidth=2;shadow=1;" edge="1" parent="1" source="9lTHU1FHQdHA7-ZyIOY5-54" target="9lTHU1FHQdHA7-ZyIOY5-70">
          <mxGeometry relative="1" as="geometry">
            <Array as="points">
              <mxPoint x="146" y="336" />
            </Array>
          </mxGeometry>
        </mxCell>
        <mxCell id="9lTHU1FHQdHA7-ZyIOY5-316" value="has" style="curved=1;startArrow=ERmandOne;startSize=10;;endArrow=ERmany;endSize=10;;exitX=1.000977858998417;exitY=0.907179154035259;entryX=0.49697630284196237;entryY=0;rounded=0;fontFamily=Helvetica;fontSize=15;strokeWidth=2;shadow=1;" edge="1" parent="1" source="9lTHU1FHQdHA7-ZyIOY5-1" target="9lTHU1FHQdHA7-ZyIOY5-102">
          <mxGeometry relative="1" as="geometry">
            <Array as="points">
              <mxPoint x="903" y="336" />
            </Array>
          </mxGeometry>
        </mxCell>
        <mxCell id="9lTHU1FHQdHA7-ZyIOY5-317" value="sends" style="curved=1;startArrow=ERmandOne;startSize=10;;endArrow=ERmany;endSize=10;;exitX=-0.00017442890242034314;exitY=0.7936976695849437;entryX=0.2516369307102427;entryY=0;rounded=0;fontFamily=Helvetica;fontSize=15;strokeWidth=2;shadow=1;" edge="1" parent="1" source="9lTHU1FHQdHA7-ZyIOY5-1" target="9lTHU1FHQdHA7-ZyIOY5-145">
          <mxGeometry relative="1" as="geometry">
            <Array as="points">
              <mxPoint x="594" y="336" />
              <mxPoint x="594" y="768" />
            </Array>
          </mxGeometry>
        </mxCell>
        <mxCell id="9lTHU1FHQdHA7-ZyIOY5-318" value="delivers" style="curved=1;startArrow=ERmandOne;startSize=10;;endArrow=ERmany;endSize=10;;exitX=-0.0018779517567090395;exitY=0.8202079295339539;entryX=0.8891188949213651;entryY=0;rounded=0;fontFamily=Helvetica;fontSize=15;strokeWidth=2;shadow=1;" edge="1" parent="1" source="9lTHU1FHQdHA7-ZyIOY5-102" target="9lTHU1FHQdHA7-ZyIOY5-145">
          <mxGeometry relative="1" as="geometry">
            <Array as="points">
              <mxPoint x="724" y="768" />
            </Array>
          </mxGeometry>
        </mxCell>
        <mxCell id="9lTHU1FHQdHA7-ZyIOY5-319" value="is paid for" style="curved=1;startArrow=ERmandOne;startSize=10;;endArrow=ERzeroToOne;endSize=10;;exitX=0.49795280959077937;exitY=1;entryX=0.5010541280110677;entryY=0;rounded=0;fontFamily=Helvetica;fontSize=15;strokeWidth=2;shadow=1;" edge="1" parent="1" source="9lTHU1FHQdHA7-ZyIOY5-145" target="9lTHU1FHQdHA7-ZyIOY5-206">
          <mxGeometry relative="1" as="geometry">
            <Array as="points" />
          </mxGeometry>
        </mxCell>
        <mxCell id="9lTHU1FHQdHA7-ZyIOY5-320" value="can withdraw" style="curved=1;startArrow=ERmandOne;startSize=10;;endArrow=ERzeroToOne;endSize=10;;exitX=0.49697630284196237;exitY=1;entryX=0.49976537068684895;entryY=0;rounded=0;fontFamily=Helvetica;fontSize=15;strokeWidth=2;shadow=1;" edge="1" parent="1" source="9lTHU1FHQdHA7-ZyIOY5-102" target="9lTHU1FHQdHA7-ZyIOY5-237">
          <mxGeometry relative="1" as="geometry">
            <Array as="points" />
          </mxGeometry>
        </mxCell>
        <mxCell id="9lTHU1FHQdHA7-ZyIOY5-321" value="receives" style="curved=1;startArrow=ERmandOne;startSize=10;;endArrow=ERmany;endSize=10;;exitX=0.9958305574406339;exitY=0.8316828072848969;entryX=0.3197320833893016;entryY=0;rounded=0;fontFamily=Helvetica;fontSize=15;strokeWidth=2;shadow=1;" edge="1" parent="1" source="9lTHU1FHQdHA7-ZyIOY5-102" target="9lTHU1FHQdHA7-ZyIOY5-262">
          <mxGeometry relative="1" as="geometry">
            <Array as="points">
              <mxPoint x="1076" y="768" />
            </Array>
          </mxGeometry>
        </mxCell>
        <mxCell id="9lTHU1FHQdHA7-ZyIOY5-322" value="gives" style="curved=1;startArrow=ERmandOne;startSize=10;;endArrow=ERmany;endSize=10;;exitX=1.000977858998417;exitY=0.6237452860289535;entryX=0.6273854554515182;entryY=0;rounded=0;fontFamily=Helvetica;fontSize=15;strokeWidth=2;shadow=1;" edge="1" parent="1" source="9lTHU1FHQdHA7-ZyIOY5-1" target="9lTHU1FHQdHA7-ZyIOY5-262">
          <mxGeometry relative="1" as="geometry">
            <Array as="points">
              <mxPoint x="1199" y="336" />
              <mxPoint x="1199" y="768" />
            </Array>
          </mxGeometry>
        </mxCell>
      </root>
    </mxGraphModel>
  </diagram>
</mxfile>
